<svg xmlns="http://www.w3.org/2000/svg" xmlns:xlink="http://www.w3.org/1999/xlink" width="100" zoomAndPan="magnify" viewBox="0 0 75 74.999997" height="100" preserveAspectRatio="xMidYMid meet" version="1.0"><defs><g/><clipPath id="2c0d0e5034"><path d="M 10.417969 0.0546875 L 68.726562 0.0546875 L 68.726562 58.46875 L 10.417969 58.46875 Z M 10.417969 0.0546875 " clip-rule="nonzero"/></clipPath></defs><path fill="#f12626" d="M 39.90625 54.550781 L 29.558594 74.945312 L 24.46875 64.964844 L 13.40625 66.753906 L 23.753906 46.359375 L 39.90625 54.550781 " fill-opacity="1" fill-rule="nonzero"/><path fill="#f12626" d="M 55.945312 46.359375 L 65.738281 67.023438 L 54.730469 64.941406 L 49.371094 74.78125 L 39.578125 54.113281 L 55.945312 46.359375 " fill-opacity="1" fill-rule="nonzero"/><g clip-path="url(#2c0d0e5034)"><path fill="#f10000" d="M 40.769531 0.554688 L 42.121094 1.929688 C 42.660156 2.480469 43.507812 2.589844 44.171875 2.199219 L 45.832031 1.222656 C 46.640625 0.746094 47.683594 1.023438 48.144531 1.84375 L 49.09375 3.519531 C 49.472656 4.191406 50.261719 4.515625 51.003906 4.308594 L 52.859375 3.792969 C 53.765625 3.542969 54.703125 4.082031 54.9375 4.992188 L 55.417969 6.859375 C 55.613281 7.605469 56.289062 8.125 57.058594 8.117188 L 58.984375 8.101562 C 59.925781 8.089844 60.6875 8.855469 60.679688 9.796875 L 60.664062 11.71875 C 60.65625 12.492188 61.175781 13.167969 61.921875 13.363281 L 63.785156 13.84375 C 64.695312 14.078125 65.238281 15.015625 64.984375 15.917969 L 64.46875 17.773438 C 64.265625 18.519531 64.589844 19.304688 65.261719 19.6875 L 66.9375 20.632812 C 67.757812 21.097656 68.035156 22.140625 67.558594 22.949219 L 66.582031 24.609375 C 66.1875 25.273438 66.300781 26.117188 66.851562 26.660156 L 68.222656 28.007812 C 68.894531 28.667969 68.894531 29.746094 68.222656 30.40625 L 66.851562 31.753906 C 66.300781 32.296875 66.1875 33.140625 66.582031 33.804688 L 67.558594 35.464844 C 68.035156 36.273438 67.757812 37.316406 66.9375 37.78125 L 65.261719 38.726562 C 64.589844 39.109375 64.265625 39.894531 64.46875 40.640625 L 64.984375 42.496094 C 65.238281 43.398438 64.695312 44.335938 63.785156 44.570312 L 61.921875 45.050781 C 61.175781 45.246094 60.65625 45.921875 60.664062 46.695312 L 60.679688 48.621094 C 60.6875 49.558594 59.925781 50.324219 58.984375 50.316406 L 57.058594 50.296875 C 56.289062 50.289062 55.613281 50.808594 55.417969 51.558594 L 54.9375 53.421875 C 54.703125 54.332031 53.765625 54.871094 52.859375 54.617188 L 51.003906 54.105469 C 50.261719 53.898438 49.472656 54.226562 49.09375 54.894531 L 48.144531 56.570312 C 47.683594 57.390625 46.640625 57.667969 45.832031 57.191406 L 44.171875 56.214844 C 43.507812 55.824219 42.660156 55.933594 42.121094 56.484375 L 40.769531 57.859375 C 40.113281 58.527344 39.03125 58.527344 38.375 57.859375 L 37.027344 56.484375 C 36.484375 55.933594 35.636719 55.824219 34.972656 56.214844 L 33.316406 57.191406 C 32.503906 57.667969 31.460938 57.390625 31 56.570312 L 30.050781 54.894531 C 29.671875 54.226562 28.882812 53.898438 28.140625 54.105469 L 26.285156 54.617188 C 25.378906 54.871094 24.445312 54.332031 24.210938 53.421875 L 23.726562 51.558594 C 23.535156 50.808594 22.859375 50.289062 22.085938 50.296875 L 20.160156 50.316406 C 19.222656 50.324219 18.457031 49.558594 18.464844 48.621094 L 18.484375 46.695312 C 18.488281 45.921875 17.96875 45.246094 17.222656 45.050781 L 15.359375 44.570312 C 14.449219 44.335938 13.910156 43.398438 14.160156 42.496094 L 14.675781 40.640625 C 14.882812 39.894531 14.554688 39.109375 13.882812 38.726562 L 12.207031 37.78125 C 11.390625 37.316406 11.109375 36.273438 11.585938 35.464844 L 12.566406 33.804688 C 12.957031 33.140625 12.84375 32.296875 12.296875 31.753906 L 10.921875 30.40625 C 10.25 29.746094 10.25 28.667969 10.921875 28.007812 L 12.296875 26.660156 C 12.84375 26.117188 12.957031 25.273438 12.566406 24.609375 L 11.585938 22.949219 C 11.109375 22.140625 11.390625 21.097656 12.207031 20.632812 L 13.882812 19.6875 C 14.554688 19.304688 14.882812 18.519531 14.675781 17.773438 L 14.160156 15.917969 C 13.910156 15.015625 14.449219 14.078125 15.359375 13.84375 L 17.222656 13.363281 C 17.96875 13.167969 18.488281 12.492188 18.484375 11.71875 L 18.464844 9.796875 C 18.457031 8.855469 19.222656 8.089844 20.160156 8.101562 L 22.085938 8.117188 C 22.859375 8.125 23.535156 7.605469 23.726562 6.859375 L 24.210938 4.992188 C 24.445312 4.082031 25.378906 3.542969 26.285156 3.792969 L 28.140625 4.308594 C 28.882812 4.515625 29.671875 4.191406 30.050781 3.519531 L 31 1.84375 C 31.460938 1.023438 32.503906 0.746094 33.316406 1.222656 L 34.972656 2.199219 C 35.636719 2.589844 36.484375 2.480469 37.027344 1.929688 L 38.375 0.554688 C 39.03125 -0.113281 40.113281 -0.113281 40.769531 0.554688 " fill-opacity="1" fill-rule="nonzero"/></g><path fill="#ffffff" d="M 39.574219 7.710938 C 27.71875 7.710938 18.074219 17.351562 18.074219 29.207031 C 18.074219 41.0625 27.71875 50.703125 39.574219 50.703125 C 51.425781 50.703125 61.070312 41.0625 61.070312 29.207031 C 61.070312 17.351562 51.425781 7.710938 39.574219 7.710938 Z M 39.574219 51.332031 C 36.585938 51.332031 33.6875 50.746094 30.960938 49.59375 C 28.328125 48.476562 25.960938 46.882812 23.929688 44.851562 C 21.898438 42.820312 20.300781 40.453125 19.1875 37.820312 C 18.035156 35.089844 17.449219 32.195312 17.449219 29.207031 C 17.449219 26.222656 18.035156 23.324219 19.1875 20.59375 C 20.300781 17.960938 21.898438 15.59375 23.929688 13.5625 C 25.960938 11.53125 28.328125 9.9375 30.960938 8.824219 C 33.6875 7.667969 36.585938 7.082031 39.574219 7.082031 C 42.558594 7.082031 45.457031 7.667969 48.183594 8.824219 C 50.820312 9.9375 53.183594 11.53125 55.214844 13.5625 C 57.246094 15.59375 58.84375 17.960938 59.957031 20.59375 C 61.113281 23.324219 61.695312 26.222656 61.695312 29.207031 C 61.695312 32.195312 61.113281 35.089844 59.957031 37.820312 C 58.84375 40.453125 57.246094 42.820312 55.214844 44.851562 C 53.183594 46.882812 50.820312 48.476562 48.183594 49.59375 C 45.457031 50.746094 42.558594 51.332031 39.574219 51.332031 " fill-opacity="1" fill-rule="nonzero"/><path fill="#ffffff" d="M 34.941406 42.328125 L 24.449219 31.996094 L 27.722656 28.671875 L 34.75 35.589844 L 50.945312 17.683594 L 54.40625 20.8125 L 34.941406 42.328125 " fill-opacity="1" fill-rule="nonzero"/><g fill="#f10000" fill-opacity="1"><g transform="translate(34.090736, 24.157991)"><g><path d="M 0.859375 0.046875 C 0.648438 0.046875 0.488281 -0.00390625 0.375 -0.109375 C 0.257812 -0.222656 0.203125 -0.367188 0.203125 -0.546875 C 0.203125 -0.753906 0.273438 -0.90625 0.421875 -1 C 0.578125 -1.101562 0.804688 -1.164062 1.109375 -1.1875 L 1.4375 -1.1875 L 1.4375 -1.484375 C 1.4375 -1.640625 1.425781 -1.765625 1.40625 -1.859375 C 1.394531 -1.953125 1.363281 -2.019531 1.3125 -2.0625 C 1.257812 -2.113281 1.179688 -2.140625 1.078125 -2.140625 C 0.921875 -2.140625 0.816406 -2.09375 0.765625 -2 C 0.722656 -1.90625 0.703125 -1.753906 0.703125 -1.546875 C 0.597656 -1.546875 0.515625 -1.5625 0.453125 -1.59375 C 0.398438 -1.632812 0.375 -1.695312 0.375 -1.78125 C 0.375 -1.882812 0.40625 -1.960938 0.46875 -2.015625 C 0.53125 -2.078125 0.613281 -2.117188 0.71875 -2.140625 C 0.832031 -2.171875 0.957031 -2.1875 1.09375 -2.1875 C 1.332031 -2.1875 1.507812 -2.132812 1.625 -2.03125 C 1.75 -1.925781 1.8125 -1.742188 1.8125 -1.484375 L 1.8125 -0.296875 C 1.8125 -0.203125 1.832031 -0.132812 1.875 -0.09375 C 1.914062 -0.0625 1.976562 -0.046875 2.0625 -0.046875 L 2.078125 -0.046875 L 2.078125 0 L 1.46875 0 L 1.46875 -0.421875 C 1.425781 -0.265625 1.347656 -0.144531 1.234375 -0.0625 C 1.128906 0.0078125 1.003906 0.046875 0.859375 0.046875 Z M 0.9375 -0.015625 C 1.039062 -0.015625 1.128906 -0.0390625 1.203125 -0.09375 C 1.273438 -0.144531 1.332031 -0.210938 1.375 -0.296875 C 1.414062 -0.378906 1.4375 -0.472656 1.4375 -0.578125 L 1.4375 -1.140625 L 1.1875 -1.140625 C 0.957031 -1.128906 0.800781 -1.078125 0.71875 -0.984375 C 0.632812 -0.890625 0.59375 -0.734375 0.59375 -0.515625 C 0.59375 -0.179688 0.707031 -0.015625 0.9375 -0.015625 Z M 0.9375 -0.015625 "/></g></g></g></svg>