<svg xmlns="http://www.w3.org/2000/svg" xmlns:xlink="http://www.w3.org/1999/xlink" width="150" zoomAndPan="magnify" viewBox="0 0 112.5 112.499997" height="150" preserveAspectRatio="xMidYMid meet" version="1.0"><defs><clipPath id="f8b1d11ca2"><path d="M 6.71875 41.761719 L 24.082031 41.761719 L 24.082031 66.476562 L 6.71875 66.476562 Z M 6.71875 41.761719 " clip-rule="nonzero"/></clipPath><clipPath id="3b1f7e938b"><path d="M 30.707031 48.226562 L 45.546875 48.226562 L 45.546875 64.746094 L 30.707031 64.746094 Z M 30.707031 48.226562 " clip-rule="nonzero"/></clipPath><clipPath id="6b29952026"><path d="M 47.039062 52.324219 L 54.320312 52.324219 L 54.320312 64.746094 L 47.039062 64.746094 Z M 47.039062 52.324219 " clip-rule="nonzero"/></clipPath><clipPath id="32cfdc6eaf"><path d="M 55.628906 52.136719 L 68.320312 52.136719 L 68.320312 64.746094 L 55.628906 64.746094 Z M 55.628906 52.136719 " clip-rule="nonzero"/></clipPath><clipPath id="9a6b67237e"><path d="M 69.628906 47.691406 L 82.695312 47.691406 L 82.695312 64.746094 L 69.628906 64.746094 Z M 69.628906 47.691406 " clip-rule="nonzero"/></clipPath><clipPath id="608b05e06b"><path d="M 84.933594 47.691406 L 89 47.691406 L 89 51.765625 L 84.933594 51.765625 Z M 84.933594 47.691406 " clip-rule="nonzero"/></clipPath><clipPath id="efa07de847"><path d="M 85.496094 52.695312 L 88.480469 52.695312 L 88.480469 64.746094 L 85.496094 64.746094 Z M 85.496094 52.695312 " clip-rule="nonzero"/></clipPath><clipPath id="822cd86ae5"><path d="M 90.535156 49.714844 L 99.683594 49.714844 L 99.683594 64.746094 L 90.535156 64.746094 Z M 90.535156 49.714844 " clip-rule="nonzero"/></clipPath><clipPath id="ee6515efcb"><path d="M 100.617188 52.136719 L 111.796875 52.136719 L 111.796875 64.746094 L 100.617188 64.746094 Z M 100.617188 52.136719 " clip-rule="nonzero"/></clipPath></defs><path fill="#1bc5ac" d="M 19.015625 63.875 L 19.015625 64.625 C 19.019531 65.300781 18.882812 65.964844 18.621094 66.585938 C 18.410156 66.578125 18.203125 66.5625 17.996094 66.53125 C 17.660156 66.480469 16.738281 66.019531 16.738281 66.019531 L 16.074219 65.671875 L 12.773438 63.9375 L 7.527344 60.773438 C 6.03125 59.542969 5.199219 58.566406 5.199219 56.792969 L 5.199219 46.46875 C 5.199219 45.851562 5.3125 45.242188 5.535156 44.667969 C 6.230469 44.730469 6.898438 44.941406 7.503906 45.28125 L 8.074219 45.601562 C 7.957031 45.878906 7.894531 46.175781 7.894531 46.476562 L 7.894531 56.019531 C 7.894531 57.265625 8.476562 57.960938 9.527344 58.832031 C 9.546875 58.847656 9.570312 58.863281 9.59375 58.878906 L 13.289062 61.105469 L 13.316406 61.121094 L 16.035156 62.710938 L 16.324219 62.863281 C 16.730469 63.078125 17.4375 63.453125 17.699219 63.574219 C 18.109375 63.765625 18.558594 63.871094 19.015625 63.875 Z M 19.015625 63.875 " fill-opacity="1" fill-rule="nonzero"/><g clip-path="url(#f8b1d11ca2)"><path fill="#1bc5ac" d="M 21.316406 61.980469 C 21.316406 61.988281 21.316406 61.996094 21.308594 62.007812 L 21.308594 64.148438 C 21.3125 64.933594 21.128906 65.707031 20.773438 66.410156 C 22.65625 65.683594 24.011719 63.925781 24.011719 61.738281 L 24.011719 59.066406 C 24.011719 59.011719 24 58.960938 23.972656 58.917969 C 23.945312 58.871094 23.910156 58.832031 23.863281 58.808594 C 23.820312 58.78125 23.769531 58.765625 23.714844 58.765625 C 23.664062 58.765625 23.613281 58.78125 23.566406 58.804688 L 21.613281 59.921875 C 21.523438 59.972656 21.449219 60.050781 21.394531 60.140625 C 21.34375 60.230469 21.316406 60.332031 21.316406 60.4375 Z M 9.21875 43.625 L 19.105469 49.164062 C 19.777344 49.542969 20.332031 50.089844 20.722656 50.75 C 21.109375 51.414062 21.316406 52.164062 21.316406 52.933594 L 21.316406 57.023438 C 21.316406 57.074219 21.328125 57.125 21.355469 57.171875 C 21.382812 57.214844 21.417969 57.253906 21.464844 57.28125 C 21.511719 57.304688 21.5625 57.320312 21.613281 57.320312 C 21.667969 57.316406 21.71875 57.304688 21.765625 57.277344 L 23.71875 56.132812 C 23.808594 56.078125 23.882812 56.003906 23.933594 55.914062 C 23.984375 55.824219 24.011719 55.722656 24.011719 55.617188 L 24.011719 51.949219 C 24.011719 51.007812 23.761719 50.085938 23.285156 49.277344 C 22.8125 48.464844 22.128906 47.796875 21.308594 47.335938 L 12.5 42.394531 C 10.550781 41.304688 8.328125 41.699219 6.851562 42.992188 C 7.679688 42.996094 8.496094 43.214844 9.21875 43.625 " fill-opacity="1" fill-rule="nonzero"/></g><path fill="#040c22" d="M 18.722656 59.058594 C 18.8125 59.007812 18.886719 58.933594 18.9375 58.84375 C 18.988281 58.753906 19.015625 58.652344 19.015625 58.546875 L 19.015625 54.839844 C 19.015625 53.898438 18.765625 52.976562 18.292969 52.167969 C 17.816406 51.355469 17.132812 50.6875 16.3125 50.226562 L 7.503906 45.285156 C 4.242188 43.453125 0.207031 45.804688 0.207031 49.539062 L 0.207031 59.871094 C 0.207031 61.628906 1.03125 62.605469 2.519531 63.832031 C 2.53125 63.84375 2.542969 63.851562 2.554688 63.859375 L 7.769531 67.007812 L 7.785156 67.015625 L 11.746094 69.09375 C 11.746094 69.09375 12.667969 69.554688 13.003906 69.601562 C 16.171875 70.0625 19.015625 67.796875 19.015625 64.625 L 19.015625 61.917969 C 19.015625 61.867188 19.003906 61.816406 18.976562 61.769531 C 18.953125 61.726562 18.914062 61.6875 18.867188 61.664062 C 18.824219 61.636719 18.773438 61.621094 18.71875 61.621094 C 18.667969 61.621094 18.617188 61.636719 18.570312 61.660156 L 16.46875 62.863281 C 16.425781 62.886719 16.386719 62.925781 16.359375 62.96875 C 16.332031 63.015625 16.320312 63.066406 16.320312 63.117188 L 16.320312 64.839844 C 16.320312 64.859375 16.316406 64.878906 16.316406 64.894531 C 15.882812 67.183594 13.878906 67.199219 12.699219 66.644531 C 12.328125 66.46875 11.035156 65.78125 11.035156 65.78125 L 8.320312 64.191406 L 8.289062 64.175781 L 4.597656 61.949219 C 4.570312 61.933594 4.550781 61.917969 4.527344 61.898438 C 3.480469 61.035156 2.898438 60.339844 2.898438 59.089844 L 2.898438 49.550781 C 2.898438 49.164062 3 48.785156 3.195312 48.449219 C 3.386719 48.117188 3.664062 47.835938 4 47.640625 C 4.335938 47.445312 4.714844 47.34375 5.101562 47.339844 C 5.488281 47.335938 5.871094 47.433594 6.207031 47.625 L 14.109375 52.054688 C 14.78125 52.429688 15.339844 52.976562 15.726562 53.640625 C 16.117188 54.300781 16.320312 55.054688 16.320312 55.820312 L 16.320312 59.949219 C 16.320312 60.003906 16.332031 60.054688 16.359375 60.097656 C 16.386719 60.144531 16.425781 60.183594 16.46875 60.207031 C 16.515625 60.234375 16.566406 60.246094 16.621094 60.246094 C 16.671875 60.246094 16.722656 60.230469 16.769531 60.207031 Z M 18.722656 59.058594 " fill-opacity="1" fill-rule="nonzero"/><g clip-path="url(#3b1f7e938b)"><path fill="#000000" d="M 34.878906 63.6875 C 33.609375 63.011719 32.550781 62 31.820312 60.761719 C 31.089844 59.476562 30.707031 58.027344 30.707031 56.554688 C 30.707031 55.078125 31.089844 53.628906 31.820312 52.34375 C 32.558594 51.105469 33.625 50.097656 34.898438 49.417969 C 36.242188 48.703125 37.75 48.34375 39.277344 48.371094 C 40.507812 48.355469 41.730469 48.585938 42.867188 49.054688 C 43.835938 49.453125 44.710938 50.054688 45.421875 50.820312 C 45.449219 50.847656 45.46875 50.882812 45.480469 50.914062 C 45.496094 50.953125 45.5 50.988281 45.5 51.027344 C 45.496094 51.0625 45.488281 51.101562 45.472656 51.136719 C 45.457031 51.167969 45.433594 51.199219 45.40625 51.226562 L 43.890625 52.648438 C 43.839844 52.699219 43.769531 52.726562 43.695312 52.726562 C 43.621094 52.726562 43.550781 52.699219 43.496094 52.648438 C 42.964844 52.109375 42.328125 51.683594 41.628906 51.398438 C 40.925781 51.113281 40.171875 50.972656 39.414062 50.988281 C 38.382812 50.964844 37.363281 51.207031 36.453125 51.691406 C 35.601562 52.152344 34.898438 52.84375 34.417969 53.683594 C 33.9375 54.570312 33.6875 55.5625 33.6875 56.570312 C 33.6875 57.578125 33.9375 58.574219 34.417969 59.460938 C 34.898438 60.300781 35.601562 60.988281 36.453125 61.453125 C 37.359375 61.9375 38.375 62.183594 39.402344 62.164062 C 40.167969 62.175781 40.925781 62.03125 41.628906 61.738281 C 42.335938 61.445312 42.96875 61.011719 43.5 60.464844 C 43.527344 60.4375 43.558594 60.417969 43.59375 60.402344 C 43.625 60.386719 43.664062 60.378906 43.699219 60.382812 C 43.734375 60.382812 43.773438 60.386719 43.804688 60.402344 C 43.839844 60.417969 43.871094 60.4375 43.898438 60.464844 L 45.410156 61.886719 C 45.464844 61.9375 45.496094 62.007812 45.5 62.085938 C 45.503906 62.160156 45.476562 62.234375 45.425781 62.289062 C 44.707031 63.054688 43.832031 63.660156 42.859375 64.0625 C 41.714844 64.527344 40.492188 64.757812 39.257812 64.742188 C 37.730469 64.765625 36.222656 64.402344 34.878906 63.683594 Z M 34.878906 63.6875 " fill-opacity="1" fill-rule="nonzero"/></g><g clip-path="url(#6b29952026)"><path fill="#000000" d="M 54.140625 52.457031 L 54.140625 55.164062 C 53.921875 55.121094 53.703125 55.101562 53.480469 55.097656 C 52.367188 55.097656 51.496094 55.417969 50.871094 56.0625 C 50.246094 56.707031 49.933594 57.636719 49.933594 58.851562 L 49.933594 64.746094 L 47.074219 64.746094 L 47.074219 52.59375 L 49.800781 52.59375 L 49.800781 54.367188 C 50.621094 53.09375 52.070312 52.457031 54.140625 52.457031 Z M 54.140625 52.457031 " fill-opacity="1" fill-rule="nonzero"/></g><g clip-path="url(#32cfdc6eaf)"><path fill="#000000" d="M 68.097656 59.414062 L 58.515625 59.414062 C 58.652344 60.273438 59.125 61.039062 59.832031 61.550781 C 60.601562 62.089844 61.527344 62.367188 62.472656 62.335938 C 63.613281 62.335938 64.714844 61.90625 65.546875 61.128906 C 65.574219 61.101562 65.609375 61.082031 65.644531 61.070312 C 65.679688 61.054688 65.71875 61.050781 65.753906 61.050781 C 65.792969 61.050781 65.832031 61.0625 65.867188 61.078125 C 65.898438 61.09375 65.929688 61.117188 65.957031 61.144531 L 67.125 62.484375 C 67.171875 62.539062 67.199219 62.605469 67.199219 62.675781 C 67.199219 62.746094 67.171875 62.816406 67.125 62.867188 C 66.609375 63.460938 65.964844 63.933594 65.242188 64.246094 C 64.210938 64.621094 63.117188 64.789062 62.019531 64.738281 C 60.921875 64.6875 59.847656 64.417969 58.859375 63.949219 C 57.871094 63.453125 57.046875 62.683594 56.488281 61.730469 C 55.921875 60.753906 55.636719 59.640625 55.65625 58.511719 C 55.640625 57.394531 55.921875 56.289062 56.472656 55.3125 C 57.003906 54.382812 57.78125 53.613281 58.722656 53.101562 C 59.71875 52.5625 60.839844 52.289062 61.972656 52.308594 C 63.085938 52.289062 64.1875 52.558594 65.164062 53.09375 C 66.089844 53.605469 66.851562 54.371094 67.359375 55.300781 C 67.902344 56.308594 68.175781 57.441406 68.152344 58.585938 C 68.152344 58.773438 68.128906 59.054688 68.097656 59.414062 Z M 59.648438 55.386719 C 59.007812 55.933594 58.59375 56.699219 58.492188 57.535156 L 65.421875 57.535156 C 65.328125 56.699219 64.921875 55.929688 64.28125 55.378906 C 63.640625 54.832031 62.8125 54.546875 61.96875 54.582031 C 61.121094 54.554688 60.296875 54.835938 59.648438 55.378906 Z M 59.648438 55.386719 " fill-opacity="1" fill-rule="nonzero"/></g><g clip-path="url(#9a6b67237e)"><path fill="#000000" d="M 82.691406 47.976562 L 82.691406 64.292969 C 82.691406 64.332031 82.683594 64.367188 82.671875 64.402344 C 82.65625 64.4375 82.636719 64.46875 82.609375 64.496094 C 82.554688 64.546875 82.480469 64.578125 82.40625 64.578125 L 80.234375 64.578125 C 80.15625 64.578125 80.085938 64.546875 80.03125 64.492188 C 79.976562 64.441406 79.945312 64.367188 79.945312 64.292969 L 79.945312 63.015625 C 79.480469 63.585938 78.878906 64.035156 78.195312 64.316406 C 77.46875 64.609375 76.6875 64.753906 75.898438 64.746094 C 74.792969 64.761719 73.703125 64.488281 72.730469 63.964844 C 71.800781 63.453125 71.035156 62.691406 70.523438 61.765625 C 69.996094 60.757812 69.722656 59.640625 69.722656 58.507812 C 69.722656 57.371094 69.996094 56.253906 70.523438 55.246094 C 71.035156 54.324219 71.800781 53.570312 72.730469 53.0625 C 73.703125 52.539062 74.792969 52.273438 75.898438 52.289062 C 76.660156 52.277344 77.414062 52.417969 78.117188 52.699219 C 78.78125 52.964844 79.371094 53.386719 79.835938 53.925781 L 79.835938 47.976562 C 79.835938 47.941406 79.839844 47.902344 79.855469 47.867188 C 79.871094 47.832031 79.890625 47.800781 79.917969 47.777344 C 79.945312 47.75 79.976562 47.726562 80.011719 47.714844 C 80.046875 47.699219 80.082031 47.691406 80.121094 47.691406 L 82.40625 47.691406 C 82.480469 47.691406 82.554688 47.722656 82.609375 47.777344 C 82.664062 47.828125 82.691406 47.902344 82.691406 47.976562 Z M 78.09375 61.828125 C 78.648438 61.519531 79.097656 61.058594 79.398438 60.5 C 79.714844 59.878906 79.878906 59.191406 79.878906 58.496094 C 79.878906 57.800781 79.714844 57.113281 79.398438 56.496094 C 79.097656 55.9375 78.648438 55.472656 78.09375 55.160156 C 77.523438 54.855469 76.886719 54.695312 76.242188 54.695312 C 75.59375 54.695312 74.957031 54.855469 74.386719 55.160156 C 73.835938 55.476562 73.386719 55.9375 73.085938 56.496094 C 72.769531 57.113281 72.605469 57.800781 72.605469 58.496094 C 72.605469 59.191406 72.769531 59.878906 73.085938 60.5 C 73.386719 61.054688 73.839844 61.515625 74.386719 61.828125 C 74.957031 62.136719 75.59375 62.296875 76.242188 62.296875 C 76.886719 62.296875 77.523438 62.136719 78.09375 61.828125 Z M 78.09375 61.828125 " fill-opacity="1" fill-rule="nonzero"/></g><g clip-path="url(#608b05e06b)"><path fill="#1bc5ac" d="M 86.929688 51.746094 C 87.316406 51.746094 87.695312 51.632812 88.019531 51.417969 C 88.339844 51.203125 88.589844 50.898438 88.738281 50.542969 C 88.886719 50.1875 88.925781 49.796875 88.851562 49.417969 C 88.777344 49.039062 88.589844 48.691406 88.316406 48.421875 C 88.042969 48.148438 87.691406 47.960938 87.3125 47.886719 C 86.933594 47.8125 86.539062 47.851562 86.179688 47.996094 C 85.824219 48.144531 85.515625 48.394531 85.300781 48.714844 C 85.085938 49.035156 84.972656 49.414062 84.972656 49.796875 C 84.972656 50.054688 85.019531 50.308594 85.121094 50.542969 C 85.21875 50.78125 85.363281 50.996094 85.542969 51.175781 C 85.726562 51.355469 85.941406 51.5 86.179688 51.597656 C 86.417969 51.695312 86.671875 51.746094 86.929688 51.746094 Z M 86.929688 51.746094 " fill-opacity="1" fill-rule="nonzero"/></g><g clip-path="url(#efa07de847)"><path fill="#000000" d="M 86.929688 53.167969 C 86.484375 53.167969 86.046875 53.023438 85.6875 52.761719 C 85.671875 52.75 85.648438 52.742188 85.628906 52.738281 C 85.605469 52.738281 85.582031 52.738281 85.566406 52.75 C 85.542969 52.757812 85.527344 52.773438 85.515625 52.792969 C 85.503906 52.8125 85.5 52.832031 85.5 52.855469 L 85.5 64.472656 C 85.5 64.550781 85.53125 64.621094 85.582031 64.675781 C 85.636719 64.726562 85.710938 64.757812 85.785156 64.757812 L 88.074219 64.757812 C 88.148438 64.757812 88.222656 64.726562 88.277344 64.675781 C 88.304688 64.648438 88.324219 64.617188 88.339844 64.582031 C 88.351562 64.546875 88.359375 64.511719 88.359375 64.472656 L 88.359375 52.855469 C 88.359375 52.835938 88.355469 52.8125 88.34375 52.792969 C 88.332031 52.777344 88.316406 52.761719 88.296875 52.75 C 88.273438 52.742188 88.253906 52.738281 88.230469 52.738281 C 88.210938 52.742188 88.1875 52.75 88.171875 52.761719 C 87.8125 53.023438 87.375 53.167969 86.929688 53.167969 Z M 86.929688 53.167969 " fill-opacity="1" fill-rule="nonzero"/></g><g clip-path="url(#822cd86ae5)"><path fill="#000000" d="M 99.578125 63.730469 C 99.601562 63.789062 99.605469 63.851562 99.589844 63.914062 C 99.570312 63.976562 99.535156 64.027344 99.480469 64.066406 C 99.160156 64.28125 98.804688 64.441406 98.433594 64.539062 C 97.9375 64.679688 97.425781 64.75 96.910156 64.746094 C 95.574219 64.746094 94.539062 64.398438 93.8125 63.699219 C 93.085938 63 92.71875 61.988281 92.703125 60.660156 L 92.703125 54.808594 L 90.976562 54.808594 C 90.902344 54.808594 90.828125 54.777344 90.773438 54.722656 C 90.722656 54.671875 90.691406 54.597656 90.691406 54.523438 L 90.691406 52.816406 C 90.691406 52.742188 90.722656 52.667969 90.773438 52.617188 C 90.828125 52.5625 90.902344 52.53125 90.976562 52.53125 L 92.703125 52.53125 L 92.703125 50.03125 C 92.703125 49.992188 92.710938 49.957031 92.726562 49.921875 C 92.738281 49.886719 92.761719 49.855469 92.789062 49.828125 C 92.816406 49.804688 92.84375 49.78125 92.878906 49.765625 C 92.914062 49.753906 92.949219 49.746094 92.988281 49.746094 L 95.277344 49.746094 C 95.3125 49.746094 95.351562 49.753906 95.386719 49.765625 C 95.421875 49.78125 95.453125 49.804688 95.480469 49.828125 C 95.503906 49.855469 95.527344 49.886719 95.539062 49.921875 C 95.554688 49.957031 95.5625 49.992188 95.5625 50.03125 L 95.5625 52.523438 L 97.417969 52.523438 C 97.496094 52.523438 97.566406 52.554688 97.621094 52.605469 C 97.648438 52.632812 97.667969 52.664062 97.683594 52.695312 C 97.695312 52.730469 97.703125 52.769531 97.703125 52.804688 L 97.703125 54.535156 C 97.703125 54.574219 97.695312 54.609375 97.683594 54.644531 C 97.667969 54.679688 97.648438 54.710938 97.621094 54.734375 C 97.566406 54.789062 97.496094 54.816406 97.417969 54.816406 L 95.5625 54.816406 L 95.5625 60.597656 C 95.527344 61.089844 95.683594 61.574219 95.996094 61.953125 C 96.160156 62.117188 96.355469 62.242188 96.574219 62.324219 C 96.792969 62.40625 97.023438 62.441406 97.253906 62.425781 C 97.71875 62.433594 98.175781 62.316406 98.582031 62.09375 C 98.617188 62.074219 98.65625 62.0625 98.699219 62.0625 C 98.738281 62.058594 98.78125 62.066406 98.816406 62.082031 C 98.855469 62.097656 98.890625 62.121094 98.917969 62.148438 C 98.945312 62.179688 98.96875 62.214844 98.984375 62.25 Z M 99.578125 63.730469 " fill-opacity="1" fill-rule="nonzero"/></g><g clip-path="url(#ee6515efcb)"><path fill="#000000" d="M 110.367188 53.570312 C 111.320312 54.429688 111.796875 55.722656 111.796875 57.453125 L 111.796875 64.289062 C 111.796875 64.367188 111.765625 64.4375 111.710938 64.492188 C 111.65625 64.546875 111.585938 64.574219 111.511719 64.574219 L 109.386719 64.574219 C 109.308594 64.574219 109.238281 64.546875 109.183594 64.492188 C 109.128906 64.4375 109.101562 64.367188 109.101562 64.289062 L 109.101562 63.105469 C 108.734375 63.648438 108.210938 64.074219 107.601562 64.320312 C 106.070312 64.902344 104.375 64.882812 102.855469 64.269531 C 102.214844 63.996094 101.660156 63.546875 101.265625 62.972656 C 100.890625 62.417969 100.695312 61.761719 100.707031 61.09375 C 100.6875 60.59375 100.792969 60.09375 101.003906 59.636719 C 101.214844 59.179688 101.53125 58.78125 101.929688 58.46875 C 102.742188 57.808594 104.027344 57.476562 105.78125 57.476562 L 108.941406 57.476562 L 108.941406 57.296875 C 108.941406 56.445312 108.683594 55.789062 108.171875 55.335938 C 107.660156 54.882812 106.902344 54.65625 105.898438 54.65625 C 105.210938 54.65625 104.527344 54.761719 103.875 54.972656 C 103.363281 55.128906 102.882812 55.363281 102.445312 55.660156 C 102.410156 55.6875 102.375 55.703125 102.335938 55.710938 C 102.292969 55.71875 102.253906 55.71875 102.214844 55.710938 C 102.175781 55.703125 102.136719 55.6875 102.105469 55.660156 C 102.070312 55.636719 102.042969 55.609375 102.023438 55.570312 L 101.175781 54.003906 C 101.144531 53.941406 101.132812 53.867188 101.148438 53.800781 C 101.164062 53.730469 101.203125 53.671875 101.261719 53.628906 C 101.90625 53.195312 102.617188 52.871094 103.367188 52.664062 C 104.296875 52.402344 105.261719 52.273438 106.230469 52.277344 C 108.03125 52.285156 109.410156 52.714844 110.367188 53.570312 Z M 107.683594 62.214844 C 108.238281 61.890625 108.515625 61.394531 108.699219 60.773438 C 108.789062 60.414062 108.855469 60.050781 108.894531 59.683594 C 108.902344 59.644531 108.902344 59.605469 108.894531 59.566406 C 108.882812 59.527344 108.863281 59.488281 108.835938 59.457031 C 108.808594 59.429688 108.777344 59.40625 108.742188 59.386719 C 108.703125 59.371094 108.664062 59.363281 108.621094 59.363281 L 106 59.363281 C 104.378906 59.363281 103.554688 59.886719 103.527344 60.933594 C 103.515625 61.332031 103.660156 61.722656 103.929688 62.019531 C 104.347656 62.449219 104.992188 62.664062 105.859375 62.660156 C 106.5 62.6875 107.136719 62.535156 107.691406 62.214844 Z M 107.683594 62.214844 " fill-opacity="1" fill-rule="nonzero"/></g></svg>