<svg xmlns="http://www.w3.org/2000/svg" xmlns:xlink="http://www.w3.org/1999/xlink" width="150" zoomAndPan="magnify" viewBox="0 0 112.5 112.499997" height="150" preserveAspectRatio="xMidYMid meet" version="1.0"><path fill="#ed0032" d="M 99.46875 46.949219 C 100.289062 46.832031 100.765625 47.179688 100.890625 47.984375 C 100.878906 48.355469 100.71875 48.652344 100.417969 48.867188 C 99.664062 49.164062 99.433594 49.683594 99.738281 50.433594 C 99.957031 50.65625 100.203125 50.84375 100.476562 50.996094 C 100.707031 51.277344 100.964844 51.535156 101.246094 51.761719 C 102.003906 52.128906 102.664062 52 103.226562 51.378906 C 103.390625 51.035156 103.566406 50.703125 103.761719 50.375 C 104.570312 49.664062 105.378906 49.664062 106.1875 50.375 C 106.699219 51.082031 106.699219 51.792969 106.1875 52.5 C 105.550781 53.085938 104.851562 53.175781 104.085938 52.769531 C 103.257812 52.011719 102.4375 52.019531 101.628906 52.796875 C 101.527344 52.941406 101.449219 53.097656 101.394531 53.269531 C 101.367188 53.539062 101.296875 53.792969 101.1875 54.039062 C 101.367188 54.582031 101.722656 54.71875 102.25 54.449219 C 102.765625 54.535156 102.953125 54.828125 102.8125 55.335938 C 102.59375 55.695312 102.285156 55.78125 101.898438 55.601562 C 101.707031 55.394531 101.601562 55.148438 101.570312 54.863281 C 101.359375 54.625 101.113281 54.554688 100.832031 54.65625 C 100.074219 55.492188 99.148438 55.765625 98.050781 55.484375 C 96.460938 54.800781 95.917969 53.632812 96.421875 51.96875 C 96.914062 50.988281 97.714844 50.445312 98.820312 50.34375 C 99.570312 49.785156 99.597656 49.1875 98.90625 48.542969 C 98.617188 47.835938 98.804688 47.300781 99.46875 46.949219 Z M 99.46875 46.949219 " fill-opacity="0.967" fill-rule="evenodd"/><path fill="#ed0032" d="M 88.226562 47.125 C 91.226562 47.257812 93.304688 48.695312 94.46875 51.4375 C 94.65625 51.996094 94.773438 52.566406 94.824219 53.152344 C 94.863281 56.894531 94.863281 60.636719 94.824219 64.375 C 94.777344 64.558594 94.667969 64.6875 94.5 64.761719 C 93.394531 64.800781 92.289062 64.800781 91.183594 64.761719 C 91.078125 64.714844 90.988281 64.644531 90.917969 64.554688 C 90.839844 62.628906 90.800781 60.699219 90.800781 58.765625 C 90.65625 57.652344 90.054688 56.914062 88.996094 56.546875 C 87.488281 56.28125 86.46875 56.863281 85.945312 58.292969 C 85.890625 60.382812 85.828125 62.46875 85.769531 64.554688 C 85.699219 64.644531 85.609375 64.714844 85.503906 64.761719 C 84.378906 64.800781 83.253906 64.800781 82.128906 64.761719 C 82 64.710938 81.914062 64.621094 81.863281 64.496094 C 81.824219 60.675781 81.824219 56.851562 81.863281 53.035156 C 82.222656 50.570312 83.515625 48.785156 85.738281 47.6875 C 86.542969 47.347656 87.371094 47.160156 88.226562 47.125 Z M 87.929688 50.257812 C 89.621094 50.273438 90.570312 51.121094 90.769531 52.796875 C 90.515625 54.539062 89.507812 55.355469 87.75 55.25 C 86.496094 54.910156 85.804688 54.089844 85.679688 52.796875 C 85.808594 51.386719 86.558594 50.542969 87.929688 50.257812 Z M 87.929688 50.257812 " fill-opacity="0.987" fill-rule="evenodd"/><path fill="#ed0032" d="M 21.292969 51.023438 C 21.902344 51.015625 22.515625 51.023438 23.125 51.054688 C 23.453125 51.144531 23.660156 51.347656 23.746094 51.675781 C 23.808594 52.023438 23.769531 52.359375 23.628906 52.679688 C 23.515625 52.832031 23.367188 52.941406 23.183594 53.003906 C 22.808594 53.023438 22.433594 53.042969 22.0625 53.0625 C 21.417969 53.121094 20.972656 53.449219 20.730469 54.039062 C 20.6875 53.230469 20.6875 52.421875 20.730469 51.617188 C 20.847656 51.347656 21.035156 51.152344 21.292969 51.023438 Z M 21.292969 51.023438 " fill-opacity="0.961" fill-rule="evenodd"/><path fill="#ed0032" d="M 41.234375 51.496094 C 41.828125 51.488281 42.417969 51.496094 43.011719 51.527344 C 43.359375 51.621094 43.566406 51.847656 43.632812 52.207031 C 43.660156 52.796875 43.671875 53.386719 43.660156 53.980469 C 45.734375 53.980469 47.804688 53.980469 49.875 53.980469 C 49.867188 53.386719 49.875 52.796875 49.90625 52.207031 C 49.988281 51.867188 50.195312 51.640625 50.527344 51.527344 C 51.136719 51.488281 51.75 51.488281 52.363281 51.527344 C 52.5625 51.609375 52.730469 51.738281 52.863281 51.910156 C 52.949219 52.59375 52.980469 53.285156 52.953125 53.980469 C 54.234375 53.980469 55.519531 53.980469 56.800781 53.980469 C 56.808594 54.394531 56.800781 54.804688 56.769531 55.21875 C 56.699219 55.46875 56.550781 55.65625 56.328125 55.78125 C 55.207031 55.867188 54.082031 55.894531 52.953125 55.871094 C 52.945312 57.503906 52.953125 59.136719 52.984375 60.773438 C 52.996094 61.796875 53.5 62.4375 54.492188 62.691406 C 55.273438 62.824219 56.0625 62.875 56.859375 62.839844 C 56.867188 63.273438 56.859375 63.707031 56.828125 64.140625 C 56.714844 64.429688 56.507812 64.617188 56.207031 64.699219 C 55.015625 64.773438 53.832031 64.714844 52.65625 64.523438 C 51.683594 64.308594 50.902344 63.808594 50.320312 63.019531 C 50.15625 62.71875 50.035156 62.40625 49.964844 62.070312 C 49.878906 60.003906 49.851562 57.9375 49.875 55.871094 C 47.804688 55.871094 45.734375 55.871094 43.660156 55.871094 C 43.652344 57.621094 43.660156 59.375 43.691406 61.125 C 43.84375 61.949219 44.328125 62.472656 45.140625 62.691406 C 45.945312 62.824219 46.753906 62.871094 47.566406 62.839844 C 47.589844 63.296875 47.5625 63.75 47.480469 64.199219 C 47.34375 64.453125 47.136719 64.621094 46.855469 64.699219 C 45.769531 64.761719 44.683594 64.722656 43.601562 64.582031 C 42.546875 64.40625 41.6875 63.902344 41.027344 63.078125 C 40.808594 62.710938 40.667969 62.316406 40.613281 61.894531 C 40.585938 59.886719 40.574219 57.878906 40.585938 55.871094 C 39.027344 56.164062 38.394531 55.535156 38.691406 53.980469 C 39.320312 53.980469 39.953125 53.980469 40.585938 53.980469 C 40.574219 53.347656 40.585938 52.71875 40.613281 52.089844 C 40.738281 51.796875 40.945312 51.597656 41.234375 51.496094 Z M 41.234375 51.496094 " fill-opacity="0.978" fill-rule="evenodd"/><path fill="#ed0032" d="M 72.070312 51.496094 C 72.660156 51.488281 73.253906 51.496094 73.84375 51.527344 C 74.144531 51.609375 74.351562 51.796875 74.464844 52.089844 C 74.484375 55.042969 74.503906 57.996094 74.523438 60.949219 C 74.570312 61.796875 74.992188 62.359375 75.796875 62.632812 C 76.65625 62.820312 77.523438 62.886719 78.402344 62.839844 C 78.714844 64.351562 78.109375 64.980469 76.597656 64.730469 C 75.273438 64.824219 74.019531 64.578125 72.839844 63.992188 C 72.007812 63.460938 71.542969 62.703125 71.449219 61.71875 C 71.40625 58.527344 71.40625 55.335938 71.449219 52.148438 C 71.546875 51.820312 71.753906 51.605469 72.070312 51.496094 Z M 72.070312 51.496094 " fill-opacity="0.98" fill-rule="evenodd"/><path fill="#ed0032" d="M 5.609375 53.980469 C 6.4375 53.953125 7.269531 53.984375 8.09375 54.066406 C 8.542969 54.1875 8.90625 54.433594 9.1875 54.804688 C 10.386719 57.21875 11.570312 59.640625 12.738281 62.070312 C 12.867188 62.355469 13.023438 62.375 13.210938 62.132812 C 14.402344 59.660156 15.605469 57.199219 16.824219 54.746094 C 17.5 54.078125 18.320312 53.820312 19.277344 53.980469 C 19.632812 54 19.988281 54.019531 20.34375 54.039062 C 18.558594 57.40625 16.773438 60.773438 14.988281 64.140625 C 14.453125 64.707031 13.792969 64.941406 13.003906 64.847656 C 12.359375 64.898438 11.769531 64.75 11.230469 64.40625 C 11.113281 64.285156 11.007812 64.15625 10.90625 64.023438 C 9.121094 60.679688 7.355469 57.332031 5.609375 53.980469 Z M 5.609375 53.980469 " fill-opacity="0.974" fill-rule="evenodd"/><path fill="#ed0032" d="M 21.46875 53.980469 C 22.0625 53.957031 22.65625 53.984375 23.242188 54.066406 C 23.5 54.203125 23.667969 54.410156 23.746094 54.6875 C 23.785156 57.820312 23.785156 60.949219 23.746094 64.082031 C 23.652344 64.433594 23.425781 64.636719 23.066406 64.699219 C 22.496094 64.742188 21.921875 64.742188 21.351562 64.699219 C 21.023438 64.613281 20.816406 64.40625 20.730469 64.082031 C 20.6875 60.929688 20.6875 57.777344 20.730469 54.628906 C 20.863281 54.28125 21.109375 54.066406 21.46875 53.980469 Z M 21.46875 53.980469 " fill-opacity="0.98" fill-rule="evenodd"/><path fill="#ed0032" d="M 30.464844 53.980469 C 31.609375 53.96875 32.753906 53.980469 33.898438 54.007812 C 35.03125 54.03125 36.09375 54.304688 37.09375 54.835938 C 38.097656 55.492188 38.621094 56.429688 38.660156 57.640625 C 38.742188 58.234375 38.660156 58.804688 38.425781 59.355469 C 38.082031 59.824219 37.621094 60.089844 37.035156 60.152344 C 34.230469 60.183594 31.429688 60.191406 28.628906 60.183594 C 28.601562 60.707031 28.671875 61.21875 28.835938 61.71875 C 29.027344 62.164062 29.351562 62.46875 29.8125 62.632812 C 30.085938 62.710938 30.363281 62.769531 30.640625 62.808594 C 33.167969 62.839844 35.691406 62.851562 38.21875 62.839844 C 38.226562 63.273438 38.21875 63.707031 38.1875 64.140625 C 38.074219 64.429688 37.867188 64.617188 37.566406 64.699219 C 34.703125 64.757812 31.84375 64.738281 28.984375 64.640625 C 26.804688 64.296875 25.628906 63.027344 25.464844 60.832031 C 25.421875 59.886719 25.421875 58.941406 25.464844 57.996094 C 25.597656 56.011719 26.632812 54.78125 28.570312 54.304688 C 29.203125 54.15625 29.835938 54.046875 30.464844 53.980469 Z M 31.351562 55.808594 C 32.066406 55.796875 32.773438 55.839844 33.484375 55.929688 C 34.367188 56.019531 35.007812 56.453125 35.40625 57.226562 C 35.515625 57.503906 35.515625 57.78125 35.40625 58.054688 C 35.332031 58.148438 35.246094 58.214844 35.140625 58.261719 C 33.363281 58.265625 31.585938 58.304688 29.8125 58.378906 C 29.335938 58.464844 28.953125 58.691406 28.660156 59.058594 C 28.59375 58.402344 28.632812 57.75 28.777344 57.109375 C 29.054688 56.617188 29.457031 56.273438 29.992188 56.074219 C 30.445312 55.949219 30.898438 55.859375 31.351562 55.808594 Z M 31.351562 55.808594 " fill-opacity="0.975" fill-rule="evenodd"/><path fill="#ed0032" d="M 62.125 53.980469 C 63.527344 53.957031 64.929688 53.984375 66.328125 54.066406 C 67.601562 54.160156 68.695312 54.644531 69.613281 55.515625 C 70.171875 56.285156 70.4375 57.152344 70.410156 58.113281 C 70.429688 59.269531 69.875 59.949219 68.753906 60.152344 C 65.933594 60.183594 63.113281 60.191406 60.292969 60.183594 C 60.300781 60.773438 60.410156 61.34375 60.617188 61.894531 C 61.050781 62.472656 61.632812 62.777344 62.363281 62.808594 C 64.886719 62.839844 67.414062 62.851562 69.9375 62.839844 C 69.949219 63.273438 69.9375 63.707031 69.910156 64.140625 C 69.792969 64.429688 69.585938 64.617188 69.289062 64.699219 C 66.445312 64.757812 63.605469 64.738281 60.765625 64.640625 C 58.566406 64.378906 57.375 63.148438 57.183594 60.949219 C 57.144531 59.925781 57.144531 58.902344 57.183594 57.878906 C 57.335938 56.050781 58.292969 54.878906 60.054688 54.363281 C 60.746094 54.183594 61.433594 54.054688 62.125 53.980469 Z M 63.074219 55.808594 C 63.929688 55.785156 64.777344 55.851562 65.617188 56.015625 C 66.507812 56.246094 67.042969 56.808594 67.214844 57.699219 C 67.222656 57.96875 67.105469 58.15625 66.859375 58.261719 C 65.203125 58.28125 63.546875 58.300781 61.890625 58.320312 C 61.519531 58.363281 61.164062 58.460938 60.824219 58.617188 C 60.617188 58.746094 60.449219 58.910156 60.320312 59.117188 C 60.289062 58.566406 60.308594 58.015625 60.378906 57.464844 C 60.664062 56.628906 61.25 56.125 62.125 55.957031 C 62.449219 55.90625 62.765625 55.855469 63.074219 55.808594 Z M 63.074219 55.808594 " fill-opacity="0.975" fill-rule="evenodd"/><path fill="#ed0032" d="M 98.523438 56.34375 C 99.980469 56.265625 100.9375 56.914062 101.394531 58.292969 C 101.488281 60.296875 101.507812 62.304688 101.453125 64.316406 C 101.421875 64.523438 101.3125 64.671875 101.128906 64.761719 C 99.628906 64.800781 98.128906 64.800781 96.628906 64.761719 C 96.460938 64.6875 96.351562 64.558594 96.304688 64.375 C 96.246094 62.34375 96.265625 60.316406 96.363281 58.292969 C 96.683594 57.191406 97.402344 56.542969 98.523438 56.34375 Z M 98.523438 56.34375 " fill-opacity="0.981" fill-rule="evenodd"/></svg>