<svg xmlns="http://www.w3.org/2000/svg" xmlns:xlink="http://www.w3.org/1999/xlink" width="800" zoomAndPan="magnify" viewBox="0 0 600 400.499988" height="534" preserveAspectRatio="xMidYMid meet" version="1.0"><defs><clipPath id="e814f0cdb5"><path d="M 183 40 L 492 40 L 492 160 L 183 160 Z M 183 40 " clip-rule="nonzero"/></clipPath><clipPath id="b4e326e9f4"><path d="M 277.042969 134.996094 L 222.816406 109.265625 L 274.273438 68.101562 C 284.5625 59.789062 298.8125 58.207031 310.292969 64.539062 L 362.144531 91.058594 L 312.667969 131.039062 C 306.730469 135.785156 299.207031 138.558594 291.6875 138.558594 C 286.542969 138.160156 281.792969 137.371094 277.042969 134.996094 Z M 260.8125 51.875 L 183.628906 114.015625 L 267.9375 153.996094 C 286.542969 162.703125 309.105469 160.328125 325.332031 147.265625 L 382.328125 101.351562 L 459.117188 140.535156 C 468.222656 145.285156 479.304688 144.097656 487.21875 137.765625 L 491.96875 134.203125 L 319.789062 45.9375 C 311.875 41.980469 303.5625 40 295.25 40 C 282.980469 40 270.710938 43.957031 260.8125 51.875 Z M 260.8125 51.875 " clip-rule="nonzero"/></clipPath><linearGradient x1="35.719798" gradientTransform="matrix(5.108377, 0, 0, 5.108377, 1.159978, 39.999931)" y1="11.654" x2="96.079495" gradientUnits="userSpaceOnUse" y2="11.654" id="759d5c16ef"><stop stop-opacity="1" stop-color="rgb(16.899109%, 76.899719%, 95.298767%)" offset="0"/><stop stop-opacity="1" stop-color="rgb(16.642761%, 76.759338%, 95.275879%)" offset="0.00390625"/><stop stop-opacity="1" stop-color="rgb(16.386414%, 76.618958%, 95.252991%)" offset="0.0078125"/><stop stop-opacity="1" stop-color="rgb(16.113281%, 76.469421%, 95.227051%)" offset="0.0117188"/><stop stop-opacity="1" stop-color="rgb(15.840149%, 76.321411%, 95.202637%)" offset="0.015625"/><stop stop-opacity="1" stop-color="rgb(15.567017%, 76.171875%, 95.178223%)" offset="0.0195313"/><stop stop-opacity="1" stop-color="rgb(15.293884%, 76.023865%, 95.153809%)" offset="0.0234375"/><stop stop-opacity="1" stop-color="rgb(15.020752%, 75.874329%, 95.127869%)" offset="0.0273438"/><stop stop-opacity="1" stop-color="rgb(14.74762%, 75.724792%, 95.103455%)" offset="0.03125"/><stop stop-opacity="1" stop-color="rgb(14.474487%, 75.575256%, 95.079041%)" offset="0.0351562"/><stop stop-opacity="1" stop-color="rgb(14.201355%, 75.427246%, 95.054626%)" offset="0.0390625"/><stop stop-opacity="1" stop-color="rgb(13.928223%, 75.27771%, 95.028687%)" offset="0.0429688"/><stop stop-opacity="1" stop-color="rgb(13.65509%, 75.1297%, 95.004272%)" offset="0.046875"/><stop stop-opacity="1" stop-color="rgb(13.381958%, 74.980164%, 94.978333%)" offset="0.0507813"/><stop stop-opacity="1" stop-color="rgb(13.108826%, 74.832153%, 94.953918%)" offset="0.0546875"/><stop stop-opacity="1" stop-color="rgb(12.835693%, 74.682617%, 94.929504%)" offset="0.0585938"/><stop stop-opacity="1" stop-color="rgb(12.562561%, 74.533081%, 94.90509%)" offset="0.0625"/><stop stop-opacity="1" stop-color="rgb(12.347412%, 74.424744%, 94.880676%)" offset="0.0664063"/><stop stop-opacity="1" stop-color="rgb(12.132263%, 74.316406%, 94.857788%)" offset="0.0703125"/><stop stop-opacity="1" stop-color="rgb(11.924744%, 74.212646%, 94.833374%)" offset="0.0742188"/><stop stop-opacity="1" stop-color="rgb(11.717224%, 74.108887%, 94.810486%)" offset="0.078125"/><stop stop-opacity="1" stop-color="rgb(11.509705%, 74.005127%, 94.786072%)" offset="0.0820313"/><stop stop-opacity="1" stop-color="rgb(11.303711%, 73.901367%, 94.763184%)" offset="0.0859375"/><stop stop-opacity="1" stop-color="rgb(11.096191%, 73.797607%, 94.73877%)" offset="0.0898438"/><stop stop-opacity="1" stop-color="rgb(10.888672%, 73.693848%, 94.715881%)" offset="0.09375"/><stop stop-opacity="1" stop-color="rgb(10.681152%, 73.590088%, 94.691467%)" offset="0.0976563"/><stop stop-opacity="1" stop-color="rgb(10.473633%, 73.486328%, 94.667053%)" offset="0.101562"/><stop stop-opacity="1" stop-color="rgb(10.266113%, 73.382568%, 94.642639%)" offset="0.105469"/><stop stop-opacity="1" stop-color="rgb(10.058594%, 73.278809%, 94.619751%)" offset="0.109375"/><stop stop-opacity="1" stop-color="rgb(9.851074%, 73.175049%, 94.595337%)" offset="0.113281"/><stop stop-opacity="1" stop-color="rgb(9.643555%, 73.071289%, 94.572449%)" offset="0.117188"/><stop stop-opacity="1" stop-color="rgb(9.436035%, 72.967529%, 94.548035%)" offset="0.121094"/><stop stop-opacity="1" stop-color="rgb(9.230042%, 72.86377%, 94.525146%)" offset="0.125"/><stop stop-opacity="1" stop-color="rgb(9.022522%, 72.76001%, 94.500732%)" offset="0.128906"/><stop stop-opacity="1" stop-color="rgb(8.815002%, 72.65625%, 94.477844%)" offset="0.132813"/><stop stop-opacity="1" stop-color="rgb(8.607483%, 72.55249%, 94.45343%)" offset="0.136719"/><stop stop-opacity="1" stop-color="rgb(8.399963%, 72.450256%, 94.430542%)" offset="0.140625"/><stop stop-opacity="1" stop-color="rgb(8.192444%, 72.346497%, 94.406128%)" offset="0.144531"/><stop stop-opacity="1" stop-color="rgb(7.984924%, 72.242737%, 94.38324%)" offset="0.148438"/><stop stop-opacity="1" stop-color="rgb(7.777405%, 72.138977%, 94.358826%)" offset="0.152344"/><stop stop-opacity="1" stop-color="rgb(7.569885%, 72.035217%, 94.335938%)" offset="0.15625"/><stop stop-opacity="1" stop-color="rgb(7.362366%, 71.931458%, 94.311523%)" offset="0.160156"/><stop stop-opacity="1" stop-color="rgb(7.156372%, 71.827698%, 94.288635%)" offset="0.164063"/><stop stop-opacity="1" stop-color="rgb(6.948853%, 71.723938%, 94.264221%)" offset="0.167969"/><stop stop-opacity="1" stop-color="rgb(6.741333%, 71.620178%, 94.241333%)" offset="0.171875"/><stop stop-opacity="1" stop-color="rgb(6.533813%, 71.516418%, 94.216919%)" offset="0.175781"/><stop stop-opacity="1" stop-color="rgb(6.326294%, 71.412659%, 94.194031%)" offset="0.179688"/><stop stop-opacity="1" stop-color="rgb(6.118774%, 71.308899%, 94.169617%)" offset="0.183594"/><stop stop-opacity="1" stop-color="rgb(5.911255%, 71.205139%, 94.146729%)" offset="0.1875"/><stop stop-opacity="1" stop-color="rgb(5.703735%, 71.101379%, 94.122314%)" offset="0.191406"/><stop stop-opacity="1" stop-color="rgb(5.497742%, 70.999146%, 94.099426%)" offset="0.195313"/><stop stop-opacity="1" stop-color="rgb(5.378723%, 70.942688%, 94.076538%)" offset="0.203125"/><stop stop-opacity="1" stop-color="rgb(5.140686%, 70.831299%, 94.032288%)" offset="0.210938"/><stop stop-opacity="1" stop-color="rgb(4.901123%, 70.721436%, 93.988037%)" offset="0.21875"/><stop stop-opacity="1" stop-color="rgb(4.663086%, 70.610046%, 93.942261%)" offset="0.226563"/><stop stop-opacity="1" stop-color="rgb(4.425049%, 70.498657%, 93.89801%)" offset="0.234375"/><stop stop-opacity="1" stop-color="rgb(4.185486%, 70.387268%, 93.85376%)" offset="0.242188"/><stop stop-opacity="1" stop-color="rgb(3.947449%, 70.277405%, 93.809509%)" offset="0.25"/><stop stop-opacity="1" stop-color="rgb(3.709412%, 70.166016%, 93.765259%)" offset="0.257812"/><stop stop-opacity="1" stop-color="rgb(3.469849%, 70.054626%, 93.721008%)" offset="0.265625"/><stop stop-opacity="1" stop-color="rgb(3.231812%, 69.944763%, 93.676758%)" offset="0.273438"/><stop stop-opacity="1" stop-color="rgb(2.993774%, 69.833374%, 93.632507%)" offset="0.28125"/><stop stop-opacity="1" stop-color="rgb(2.755737%, 69.721985%, 93.588257%)" offset="0.289063"/><stop stop-opacity="1" stop-color="rgb(2.516174%, 69.612122%, 93.544006%)" offset="0.296875"/><stop stop-opacity="1" stop-color="rgb(2.278137%, 69.500732%, 93.499756%)" offset="0.304688"/><stop stop-opacity="1" stop-color="rgb(2.0401%, 69.389343%, 93.455505%)" offset="0.3125"/><stop stop-opacity="1" stop-color="rgb(1.800537%, 69.27948%, 93.411255%)" offset="0.320313"/><stop stop-opacity="1" stop-color="rgb(1.5625%, 69.168091%, 93.365479%)" offset="0.328125"/><stop stop-opacity="1" stop-color="rgb(1.292419%, 69.036865%, 93.321228%)" offset="0.34375"/><stop stop-opacity="1" stop-color="rgb(1.028442%, 68.885803%, 93.299866%)" offset="0.375"/><stop stop-opacity="1" stop-color="rgb(0.799561%, 68.733215%, 93.299866%)" offset="0.40625"/><stop stop-opacity="1" stop-color="rgb(0.570679%, 68.580627%, 93.299866%)" offset="0.4375"/><stop stop-opacity="1" stop-color="rgb(0.341797%, 68.42804%, 93.299866%)" offset="0.46875"/><stop stop-opacity="1" stop-color="rgb(0.112915%, 68.275452%, 93.29834%)" offset="0.5"/><stop stop-opacity="1" stop-color="rgb(0%, 68.045044%, 93.17627%)" offset="0.515625"/><stop stop-opacity="1" stop-color="rgb(0%, 67.738342%, 92.932129%)" offset="0.53125"/><stop stop-opacity="1" stop-color="rgb(0%, 67.431641%, 92.687988%)" offset="0.546875"/><stop stop-opacity="1" stop-color="rgb(0%, 67.124939%, 92.445374%)" offset="0.5625"/><stop stop-opacity="1" stop-color="rgb(0%, 66.818237%, 92.201233%)" offset="0.578125"/><stop stop-opacity="1" stop-color="rgb(0%, 66.511536%, 91.957092%)" offset="0.59375"/><stop stop-opacity="1" stop-color="rgb(0%, 66.204834%, 91.712952%)" offset="0.609375"/><stop stop-opacity="1" stop-color="rgb(0%, 65.898132%, 91.468811%)" offset="0.625"/><stop stop-opacity="1" stop-color="rgb(0%, 65.591431%, 91.22467%)" offset="0.640625"/><stop stop-opacity="1" stop-color="rgb(0%, 65.286255%, 90.98053%)" offset="0.65625"/><stop stop-opacity="1" stop-color="rgb(0%, 64.979553%, 90.736389%)" offset="0.671875"/><stop stop-opacity="1" stop-color="rgb(0%, 64.672852%, 90.492249%)" offset="0.6875"/><stop stop-opacity="1" stop-color="rgb(0%, 64.36615%, 90.248108%)" offset="0.703125"/><stop stop-opacity="1" stop-color="rgb(0%, 64.059448%, 90.003967%)" offset="0.71875"/><stop stop-opacity="1" stop-color="rgb(0%, 63.752747%, 89.761353%)" offset="0.734375"/><stop stop-opacity="1" stop-color="rgb(0%, 63.446045%, 89.517212%)" offset="0.75"/><stop stop-opacity="1" stop-color="rgb(0%, 63.139343%, 89.273071%)" offset="0.765625"/><stop stop-opacity="1" stop-color="rgb(0%, 62.832642%, 89.028931%)" offset="0.78125"/><stop stop-opacity="1" stop-color="rgb(0%, 62.52594%, 88.78479%)" offset="0.796875"/><stop stop-opacity="1" stop-color="rgb(0%, 62.219238%, 88.540649%)" offset="0.8125"/><stop stop-opacity="1" stop-color="rgb(0%, 61.914062%, 88.296509%)" offset="0.828125"/><stop stop-opacity="1" stop-color="rgb(0%, 61.607361%, 88.052368%)" offset="0.84375"/><stop stop-opacity="1" stop-color="rgb(0%, 61.300659%, 87.808228%)" offset="0.859375"/><stop stop-opacity="1" stop-color="rgb(0%, 60.993958%, 87.564087%)" offset="0.875"/><stop stop-opacity="1" stop-color="rgb(0%, 60.687256%, 87.321472%)" offset="0.890625"/><stop stop-opacity="1" stop-color="rgb(0%, 60.380554%, 87.077332%)" offset="0.90625"/><stop stop-opacity="1" stop-color="rgb(0%, 60.073853%, 86.833191%)" offset="0.921875"/><stop stop-opacity="1" stop-color="rgb(0%, 59.767151%, 86.58905%)" offset="0.9375"/><stop stop-opacity="1" stop-color="rgb(0%, 59.460449%, 86.34491%)" offset="0.953125"/><stop stop-opacity="1" stop-color="rgb(0%, 59.153748%, 86.100769%)" offset="0.96875"/><stop stop-opacity="1" stop-color="rgb(0%, 58.848572%, 85.856628%)" offset="0.984375"/><stop stop-opacity="1" stop-color="rgb(0%, 58.547974%, 85.617065%)" offset="1"/></linearGradient><clipPath id="c2cbaf4fff"><path d="M 1.160156 261 L 74 261 L 74 348 L 1.160156 348 Z M 1.160156 261 " clip-rule="nonzero"/></clipPath><clipPath id="349a80f27f"><path d="M 149 261 L 225 261 L 225 348.734375 L 149 348.734375 Z M 149 261 " clip-rule="nonzero"/></clipPath><clipPath id="2f40565217"><path d="M 508 260 L 598.839844 260 L 598.839844 348.734375 L 508 348.734375 Z M 508 260 " clip-rule="nonzero"/></clipPath></defs><path fill="#ffffff" d="M 103.28125 111.246094 L 98.53125 115.203125 L 270.710938 203.472656 C 289.707031 212.96875 312.667969 210.597656 329.289062 197.535156 L 406.472656 135.390625 L 322.164062 95.414062 C 303.5625 86.707031 281 89.082031 264.773438 102.144531 L 207.773438 147.660156 L 130.988281 108.476562 C 121.882812 103.726562 111.195312 104.914062 103.28125 111.246094 Z M 227.960938 157.953125 L 277.835938 117.976562 C 287.730469 110.058594 301.582031 108.476562 313.0625 114.015625 L 367.683594 139.746094 L 316.226562 180.910156 C 305.9375 189.222656 291.6875 190.410156 280.210938 184.472656 Z M 227.960938 157.953125 " fill-opacity="1" fill-rule="nonzero"/><g clip-path="url(#e814f0cdb5)"><g clip-path="url(#b4e326e9f4)"><path fill="url(#759d5c16ef)" d="M 183.628906 40 L 183.628906 162.703125 L 491.96875 162.703125 L 491.96875 40 Z M 183.628906 40 " fill-rule="nonzero"/></g></g><g clip-path="url(#c2cbaf4fff)"><path fill="#ffffff" d="M 1.160156 261.65625 L 40.742188 261.65625 C 50.636719 261.65625 58.15625 264.03125 63.304688 269.175781 C 67.261719 273.136719 69.242188 277.886719 69.242188 283.820312 L 69.242188 284.21875 C 69.242188 293.71875 64.09375 299.65625 58.15625 302.820312 C 68.050781 306.777344 73.988281 312.320312 73.988281 323.800781 L 73.988281 324.195312 C 73.988281 340.027344 61.324219 347.546875 41.929688 347.546875 L 1.160156 347.546875 Z M 36.785156 296.09375 C 45.09375 296.09375 50.242188 293.320312 50.242188 286.988281 L 50.242188 286.59375 C 50.242188 280.65625 45.886719 277.886719 37.972656 277.886719 L 19.367188 277.886719 L 19.367188 296.09375 Z M 41.929688 330.921875 C 50.242188 330.921875 55.386719 328.152344 55.386719 321.820312 L 55.386719 321.027344 C 55.386719 315.089844 51.03125 311.925781 41.53125 311.925781 L 19.367188 311.925781 L 19.367188 330.921875 Z M 41.929688 330.921875 " fill-opacity="1" fill-rule="nonzero"/></g><path fill="#ffffff" d="M 83.09375 261.65625 L 102.09375 261.65625 L 102.09375 330.132812 L 144.839844 330.132812 L 144.839844 347.152344 L 83.09375 347.152344 Z M 83.09375 261.65625 " fill-opacity="1" fill-rule="nonzero"/><g clip-path="url(#349a80f27f)"><path fill="#ffffff" d="M 149.195312 310.738281 L 149.195312 261.65625 L 168.195312 261.65625 L 168.195312 309.945312 C 168.195312 324.195312 174.921875 330.921875 186.796875 330.921875 C 198.273438 330.921875 205.398438 324.195312 205.398438 310.339844 L 205.398438 261.65625 L 224.398438 261.65625 L 224.398438 309.945312 C 224.398438 335.671875 209.753906 348.734375 186.796875 348.734375 C 163.046875 348.734375 149.195312 336.070312 149.195312 310.738281 Z M 149.195312 310.738281 " fill-opacity="1" fill-rule="nonzero"/></g><path fill="#ffffff" d="M 236.667969 261.65625 L 301.1875 261.65625 L 301.1875 278.28125 L 255.273438 278.28125 L 255.273438 295.695312 L 295.644531 295.695312 L 295.644531 312.714844 L 255.273438 312.714844 L 255.273438 330.527344 L 301.980469 330.527344 L 301.980469 347.152344 L 236.667969 347.152344 Z M 236.667969 261.65625 " fill-opacity="1" fill-rule="nonzero"/><path fill="#ffffff" d="M 332.457031 261.65625 L 313.457031 261.65625 L 313.457031 347.152344 L 332.457031 347.152344 Z M 332.457031 261.65625 " fill-opacity="1" fill-rule="nonzero"/><path fill="#ffffff" d="M 347.496094 261.65625 L 364.914062 261.65625 L 404.890625 314.300781 L 404.890625 261.65625 L 423.492188 261.65625 L 423.492188 347.152344 L 407.265625 347.152344 L 366.101562 292.925781 L 366.101562 347.152344 L 347.496094 347.152344 Z M 347.496094 261.65625 " fill-opacity="1" fill-rule="nonzero"/><path fill="#ffffff" d="M 437.742188 261.65625 L 503.054688 261.65625 L 503.054688 278.675781 L 456.742188 278.675781 L 456.742188 296.882812 L 497.511719 296.882812 L 497.511719 314.300781 L 456.742188 314.300781 L 456.742188 347.152344 L 437.742188 347.152344 Z M 437.742188 261.65625 " fill-opacity="1" fill-rule="nonzero"/><g clip-path="url(#2f40565217)"><path fill="#ffffff" d="M 508.199219 304.800781 C 508.199219 280.257812 527.199219 260.46875 553.71875 260.46875 C 580.234375 260.46875 599.238281 280.257812 599.238281 304.40625 L 599.238281 304.800781 C 599.238281 328.945312 580.234375 349.132812 553.71875 349.132812 C 527.199219 349.132812 508.199219 328.945312 508.199219 304.800781 Z M 579.445312 304.800781 C 579.445312 289.757812 568.757812 277.488281 553.71875 277.488281 C 538.679688 277.488281 527.992188 289.363281 527.992188 304.007812 L 527.992188 304.40625 C 527.992188 319.050781 538.679688 331.320312 553.71875 331.320312 C 568.757812 331.320312 579.445312 319.445312 579.445312 304.800781 Z M 579.445312 304.800781 " fill-opacity="1" fill-rule="nonzero"/></g></svg>