<svg xmlns="http://www.w3.org/2000/svg" xmlns:xlink="http://www.w3.org/1999/xlink" width="150" zoomAndPan="magnify" viewBox="0 0 112.5 112.499997" height="150" preserveAspectRatio="xMidYMid meet" version="1.0"><path fill="#0e69af" d="M 54.277344 64.457031 C 54.28125 64.335938 54.292969 64.210938 54.316406 64.089844 C 54.339844 63.96875 54.375 63.851562 54.425781 63.738281 C 54.472656 63.621094 54.53125 63.515625 54.597656 63.410156 C 54.667969 63.308594 54.746094 63.214844 54.835938 63.125 C 54.921875 63.039062 55.019531 62.960938 55.121094 62.894531 C 55.222656 62.824219 55.332031 62.765625 55.449219 62.71875 C 55.5625 62.671875 55.679688 62.636719 55.804688 62.613281 C 55.925781 62.585938 56.046875 62.574219 56.171875 62.574219 C 56.296875 62.574219 56.417969 62.585938 56.539062 62.613281 C 56.660156 62.636719 56.78125 62.671875 56.894531 62.71875 C 57.007812 62.765625 57.117188 62.824219 57.222656 62.894531 C 57.324219 62.960938 57.421875 63.039062 57.507812 63.125 C 57.597656 63.214844 57.675781 63.308594 57.742188 63.410156 C 57.8125 63.515625 57.871094 63.621094 57.917969 63.738281 C 57.964844 63.851562 58.003906 63.96875 58.027344 64.089844 C 58.050781 64.210938 58.0625 64.335938 58.0625 64.457031 C 58.0625 64.582031 58.050781 64.703125 58.027344 64.824219 C 58.003906 64.945312 57.96875 65.066406 57.921875 65.179688 C 57.875 65.292969 57.816406 65.402344 57.746094 65.503906 C 57.679688 65.605469 57.601562 65.703125 57.511719 65.789062 C 57.425781 65.878906 57.332031 65.957031 57.226562 66.023438 C 57.125 66.09375 57.015625 66.152344 56.902344 66.199219 C 56.785156 66.246094 56.667969 66.285156 56.546875 66.308594 C 56.425781 66.332031 56.300781 66.347656 56.179688 66.347656 C 56.054688 66.347656 55.929688 66.335938 55.808594 66.308594 C 55.6875 66.285156 55.570312 66.25 55.453125 66.203125 C 55.339844 66.15625 55.230469 66.097656 55.125 66.027344 C 55.023438 65.960938 54.929688 65.878906 54.839844 65.792969 C 54.753906 65.707031 54.675781 65.609375 54.605469 65.507812 C 54.535156 65.402344 54.480469 65.292969 54.429688 65.179688 C 54.382812 65.066406 54.347656 64.949219 54.324219 64.824219 C 54.300781 64.703125 54.289062 64.582031 54.289062 64.457031 M 57.613281 64.457031 C 57.605469 64.367188 57.589844 64.277344 57.566406 64.191406 C 57.542969 64.101562 57.507812 64.019531 57.46875 63.9375 C 57.429688 63.855469 57.378906 63.777344 57.324219 63.707031 C 57.269531 63.632812 57.207031 63.566406 57.136719 63.507812 C 57.070312 63.449219 56.996094 63.394531 56.917969 63.347656 C 56.839844 63.304688 56.757812 63.265625 56.671875 63.234375 C 56.585938 63.203125 56.496094 63.183594 56.40625 63.167969 C 56.316406 63.15625 56.226562 63.152344 56.132812 63.15625 C 56.042969 63.160156 55.953125 63.171875 55.863281 63.195312 C 55.777344 63.21875 55.691406 63.246094 55.605469 63.285156 C 55.523438 63.324219 55.445312 63.367188 55.371094 63.421875 C 55.296875 63.472656 55.230469 63.535156 55.167969 63.601562 C 55.105469 63.667969 55.050781 63.738281 55 63.816406 C 54.953125 63.890625 54.910156 63.972656 54.878906 64.058594 C 54.84375 64.140625 54.820312 64.230469 54.804688 64.320312 C 54.789062 64.410156 54.78125 64.5 54.785156 64.589844 C 54.785156 64.679688 54.792969 64.769531 54.8125 64.859375 C 54.832031 64.949219 54.859375 65.035156 54.894531 65.117188 C 54.929688 65.203125 54.972656 65.28125 55.023438 65.355469 C 55.074219 65.433594 55.132812 65.5 55.199219 65.566406 C 55.261719 65.628906 55.332031 65.6875 55.410156 65.738281 C 55.484375 65.789062 55.5625 65.832031 55.648438 65.867188 C 55.730469 65.902344 55.816406 65.929688 55.90625 65.949219 C 55.996094 65.96875 56.085938 65.976562 56.179688 65.980469 C 56.273438 65.976562 56.371094 65.964844 56.464844 65.941406 C 56.558594 65.921875 56.652344 65.890625 56.742188 65.851562 C 56.828125 65.8125 56.914062 65.761719 56.992188 65.707031 C 57.070312 65.648438 57.140625 65.585938 57.207031 65.515625 C 57.273438 65.445312 57.332031 65.367188 57.382812 65.285156 C 57.433594 65.203125 57.476562 65.117188 57.507812 65.027344 C 57.542969 64.933594 57.566406 64.839844 57.582031 64.746094 C 57.597656 64.648438 57.601562 64.554688 57.597656 64.457031 M 55.433594 63.398438 L 56.230469 63.398438 C 56.746094 63.398438 57.023438 63.574219 57.023438 64.027344 C 57.027344 64.0625 57.027344 64.101562 57.019531 64.140625 C 57.015625 64.175781 57.007812 64.214844 56.996094 64.25 C 56.980469 64.285156 56.964844 64.320312 56.945312 64.351562 C 56.921875 64.382812 56.898438 64.414062 56.875 64.441406 C 56.847656 64.46875 56.816406 64.492188 56.785156 64.511719 C 56.753906 64.53125 56.71875 64.550781 56.683594 64.5625 C 56.648438 64.578125 56.613281 64.585938 56.574219 64.59375 C 56.539062 64.597656 56.5 64.601562 56.460938 64.597656 L 57.035156 65.535156 L 56.628906 65.535156 L 56.074219 64.613281 L 55.835938 64.613281 L 55.835938 65.535156 L 55.433594 65.535156 Z M 55.839844 64.308594 L 56.195312 64.308594 C 56.429688 64.308594 56.636719 64.273438 56.636719 63.992188 C 56.636719 63.710938 56.40625 63.699219 56.199219 63.699219 L 55.84375 63.699219 Z M 55.839844 64.308594 " fill-opacity="1" fill-rule="nonzero"/><path fill="#0db04b" d="M 48.179688 44.460938 C 47.84375 44.464844 47.507812 44.496094 47.175781 44.550781 C 46.84375 44.605469 46.515625 44.6875 46.195312 44.789062 C 45.875 44.894531 45.5625 45.023438 45.261719 45.175781 C 44.960938 45.328125 44.675781 45.503906 44.398438 45.699219 C 44.125 45.894531 43.867188 46.109375 43.625 46.34375 C 43.382812 46.578125 43.160156 46.832031 42.957031 47.101562 C 42.753906 47.367188 42.574219 47.652344 42.414062 47.945312 C 42.253906 48.242188 42.117188 48.550781 42.003906 48.867188 C 41.957031 48.996094 41.785156 49.542969 41.785156 49.542969 L 37.886719 66.347656 L 46.835938 66.347656 C 49.910156 66.347656 52.503906 64.136719 53.246094 61.160156 L 57.117188 44.457031 Z M 48.179688 44.460938 " fill-opacity="1" fill-rule="nonzero"/><path fill="#f27226" d="M 33.285156 39.59375 C 32.929688 39.597656 32.578125 39.625 32.226562 39.683594 C 31.875 39.742188 31.53125 39.828125 31.195312 39.941406 C 30.859375 40.054688 30.535156 40.195312 30.222656 40.359375 C 29.90625 40.527344 29.609375 40.71875 29.328125 40.929688 C 29.042969 41.144531 28.78125 41.382812 28.535156 41.636719 C 28.292969 41.894531 28.070312 42.167969 27.871094 42.460938 C 27.671875 42.753906 27.496094 43.0625 27.347656 43.382812 C 27.195312 43.703125 27.074219 44.035156 26.976562 44.375 C 26.917969 44.582031 26.871094 44.792969 26.832031 45.003906 L 20.746094 71.210938 L 29.699219 71.210938 C 29.878906 71.210938 30.0625 71.203125 30.242188 71.1875 C 30.421875 71.171875 30.601562 71.148438 30.78125 71.117188 C 30.960938 71.085938 31.136719 71.050781 31.3125 71.003906 C 31.488281 70.960938 31.664062 70.90625 31.832031 70.847656 C 32.003906 70.789062 32.171875 70.722656 32.339844 70.648438 C 32.503906 70.574219 32.667969 70.496094 32.828125 70.410156 C 32.984375 70.324219 33.140625 70.230469 33.292969 70.128906 C 33.445312 70.03125 33.589844 69.925781 33.734375 69.8125 C 33.878906 69.703125 34.015625 69.585938 34.148438 69.460938 C 34.28125 69.339844 34.40625 69.210938 34.53125 69.078125 C 34.652344 68.945312 34.769531 68.804688 34.878906 68.660156 C 34.992188 68.519531 35.09375 68.371094 35.195312 68.21875 C 35.292969 68.070312 35.386719 67.914062 35.46875 67.753906 C 35.554688 67.59375 35.636719 67.429688 35.707031 67.265625 C 35.78125 67.101562 35.84375 66.933594 35.902344 66.761719 C 35.960938 66.589844 36.011719 66.414062 36.054688 66.242188 L 42.234375 39.59375 Z M 33.285156 39.59375 " fill-opacity="1" fill-rule="nonzero"/><path fill="#0e69af" d="M 16.140625 44.460938 C 15.789062 44.464844 15.441406 44.5 15.097656 44.558594 C 14.753906 44.617188 14.414062 44.707031 14.085938 44.820312 C 13.753906 44.933594 13.433594 45.070312 13.125 45.234375 C 12.816406 45.394531 12.523438 45.582031 12.242188 45.792969 C 11.964844 46 11.699219 46.230469 11.457031 46.480469 C 11.214844 46.730469 10.992188 47 10.792969 47.285156 C 10.589844 47.570312 10.414062 47.867188 10.257812 48.179688 C 10.105469 48.492188 9.976562 48.816406 9.875 49.148438 C 9.851562 49.207031 9.835938 49.269531 9.816406 49.332031 L 9.667969 49.917969 L 5.863281 66.347656 L 15.023438 66.347656 C 15.351562 66.339844 15.679688 66.3125 16.003906 66.257812 C 16.332031 66.199219 16.648438 66.121094 16.964844 66.015625 C 17.277344 65.914062 17.578125 65.785156 17.871094 65.636719 C 18.167969 65.484375 18.445312 65.3125 18.714844 65.121094 C 18.980469 64.925781 19.230469 64.714844 19.464844 64.480469 C 19.699219 64.25 19.914062 64.003906 20.109375 63.738281 C 20.308594 63.472656 20.480469 63.195312 20.636719 62.902344 C 20.789062 62.613281 20.917969 62.3125 21.023438 62 L 21.378906 60.4375 L 25.085938 44.460938 Z M 16.140625 44.460938 " fill-opacity="1" fill-rule="nonzero"/><path fill="#ffffff" d="M 14.46875 49.917969 L 14.332031 49.917969 C 14.003906 49.921875 13.683594 49.980469 13.375 50.097656 C 13.066406 50.214844 12.789062 50.378906 12.539062 50.59375 C 12.304688 50.773438 12.101562 50.980469 11.929688 51.21875 C 11.761719 51.457031 11.625 51.714844 11.53125 51.996094 L 9.480469 60.875 L 9.597656 60.875 C 9.929688 60.871094 10.25 60.808594 10.5625 60.691406 C 10.871094 60.574219 11.152344 60.410156 11.40625 60.191406 C 11.671875 59.988281 11.898438 59.746094 12.078125 59.464844 C 12.261719 59.179688 12.390625 58.878906 12.46875 58.550781 L 12.917969 56.625 L 16.992188 56.625 C 17.324219 56.617188 17.644531 56.554688 17.957031 56.4375 C 18.265625 56.320312 18.546875 56.152344 18.800781 55.9375 C 19.066406 55.734375 19.289062 55.492188 19.472656 55.210938 C 19.65625 54.933594 19.785156 54.628906 19.863281 54.304688 L 19.886719 54.1875 L 13.476562 54.1875 L 13.902344 52.355469 L 19.449219 52.355469 C 19.777344 52.351562 20.09375 52.292969 20.402344 52.175781 C 20.710938 52.0625 20.992188 51.898438 21.242188 51.683594 C 21.503906 51.480469 21.730469 51.238281 21.910156 50.957031 C 22.09375 50.675781 22.222656 50.375 22.304688 50.050781 L 22.332031 49.933594 Z M 14.46875 49.917969 " fill-opacity="1" fill-rule="nonzero"/><path fill="#ffffff" d="M 37.105469 50.457031 C 36.921875 50.277344 36.714844 50.144531 36.476562 50.050781 C 36.242188 49.960938 35.996094 49.917969 35.738281 49.925781 L 27.914062 49.925781 L 25.386719 60.871094 L 25.503906 60.871094 C 25.835938 60.867188 26.15625 60.804688 26.46875 60.6875 C 26.777344 60.574219 27.058594 60.40625 27.3125 60.1875 C 27.578125 59.984375 27.804688 59.742188 27.984375 59.460938 C 28.167969 59.179688 28.296875 58.875 28.375 58.546875 L 28.828125 56.597656 L 34.25 56.597656 C 34.566406 56.625 34.878906 56.59375 35.183594 56.503906 C 35.488281 56.417969 35.769531 56.277344 36.019531 56.082031 C 36.292969 55.847656 36.523438 55.578125 36.710938 55.273438 C 36.898438 54.96875 37.03125 54.640625 37.117188 54.292969 L 37.589844 52.265625 C 37.625 52.101562 37.644531 51.9375 37.648438 51.769531 C 37.652344 51.523438 37.609375 51.285156 37.515625 51.054688 C 37.417969 50.828125 37.28125 50.628906 37.105469 50.457031 Z M 34.664062 54.183594 L 29.386719 54.183594 L 29.8125 52.347656 L 35.09375 52.347656 Z M 34.664062 54.183594 " fill-opacity="1" fill-rule="nonzero"/><path fill="#ffffff" d="M 53.027344 50.460938 C 52.847656 50.28125 52.640625 50.148438 52.402344 50.054688 C 52.164062 49.964844 51.917969 49.921875 51.664062 49.933594 L 43.421875 49.933594 L 43.421875 50.011719 C 43.386719 50.167969 43.367188 50.328125 43.363281 50.492188 C 43.351562 50.738281 43.390625 50.980469 43.480469 51.210938 C 43.566406 51.445312 43.699219 51.652344 43.871094 51.828125 C 44.054688 52.007812 44.261719 52.144531 44.5 52.234375 C 44.734375 52.328125 44.984375 52.367188 45.234375 52.359375 L 46.964844 52.359375 L 44.996094 60.875 L 45.113281 60.875 C 45.445312 60.871094 45.765625 60.8125 46.078125 60.695312 C 46.390625 60.578125 46.671875 60.410156 46.921875 60.191406 C 47.191406 59.988281 47.414062 59.746094 47.597656 59.464844 C 47.78125 59.179688 47.910156 58.878906 47.984375 58.550781 L 49.429688 52.359375 L 53.503906 52.359375 L 53.503906 52.28125 C 53.539062 52.117188 53.558594 51.949219 53.558594 51.78125 C 53.566406 51.535156 53.527344 51.296875 53.433594 51.066406 C 53.339844 50.835938 53.207031 50.636719 53.027344 50.460938 Z M 53.027344 50.460938 " fill-opacity="1" fill-rule="nonzero"/><path fill="#1068b0" d="M 66.453125 60.289062 C 66.15625 60.523438 65.828125 60.699219 65.46875 60.816406 C 65.109375 60.933594 64.738281 60.980469 64.359375 60.960938 C 63.621094 60.988281 62.921875 60.839844 62.257812 60.519531 L 62.710938 59.367188 C 63.214844 59.648438 63.753906 59.785156 64.328125 59.785156 C 64.53125 59.796875 64.730469 59.769531 64.925781 59.707031 C 65.121094 59.648438 65.300781 59.554688 65.460938 59.433594 C 65.605469 59.324219 65.714844 59.1875 65.789062 59.023438 C 65.867188 58.863281 65.902344 58.691406 65.894531 58.511719 C 65.894531 57.984375 65.441406 57.523438 64.539062 57.128906 C 64.007812 56.910156 63.519531 56.613281 63.078125 56.242188 C 62.847656 56.039062 62.671875 55.796875 62.546875 55.515625 C 62.421875 55.234375 62.363281 54.941406 62.367188 54.636719 C 62.363281 54.472656 62.371094 54.3125 62.402344 54.152344 C 62.429688 53.988281 62.476562 53.835938 62.542969 53.683594 C 62.605469 53.535156 62.683594 53.390625 62.78125 53.261719 C 62.875 53.128906 62.984375 53.007812 63.105469 52.898438 C 63.378906 52.679688 63.679688 52.515625 64.011719 52.40625 C 64.347656 52.296875 64.6875 52.253906 65.035156 52.269531 C 65.710938 52.242188 66.347656 52.390625 66.941406 52.714844 L 66.519531 53.773438 C 66.074219 53.519531 65.59375 53.390625 65.082031 53.390625 C 64.898438 53.378906 64.71875 53.402344 64.546875 53.457031 C 64.371094 53.511719 64.210938 53.59375 64.066406 53.707031 C 63.9375 53.8125 63.839844 53.941406 63.769531 54.09375 C 63.703125 54.246094 63.671875 54.402344 63.679688 54.570312 C 63.679688 55.082031 64.152344 55.550781 65.097656 55.980469 C 65.613281 56.195312 66.085938 56.480469 66.515625 56.84375 C 66.742188 57.046875 66.921875 57.289062 67.042969 57.570312 C 67.167969 57.851562 67.226562 58.144531 67.222656 58.453125 C 67.230469 58.625 67.222656 58.792969 67.191406 58.964844 C 67.160156 59.132812 67.113281 59.296875 67.046875 59.457031 C 66.980469 59.617188 66.898438 59.765625 66.796875 59.90625 C 66.699219 60.046875 66.582031 60.171875 66.453125 60.289062 Z M 66.453125 60.289062 " fill-opacity="1" fill-rule="nonzero"/><path fill="#1068b0" d="M 72.722656 60.019531 C 72.660156 60.09375 72.589844 60.164062 72.519531 60.230469 C 72.449219 60.296875 72.375 60.359375 72.296875 60.417969 C 72.21875 60.476562 72.136719 60.53125 72.054688 60.578125 C 71.972656 60.628906 71.886719 60.675781 71.796875 60.714844 C 71.707031 60.753906 71.617188 60.792969 71.523438 60.820312 C 71.433594 60.851562 71.339844 60.878906 71.242188 60.898438 C 71.148438 60.921875 71.050781 60.933594 70.957031 60.945312 C 70.859375 60.957031 70.761719 60.960938 70.664062 60.960938 C 70.566406 60.960938 70.46875 60.957031 70.371094 60.945312 C 70.273438 60.933594 70.179688 60.921875 70.082031 60.898438 C 69.988281 60.878906 69.894531 60.851562 69.800781 60.820312 C 69.710938 60.792969 69.621094 60.753906 69.53125 60.714844 C 69.441406 60.675781 69.355469 60.628906 69.273438 60.578125 C 69.1875 60.53125 69.109375 60.476562 69.03125 60.417969 C 68.953125 60.359375 68.878906 60.296875 68.808594 60.230469 C 68.734375 60.164062 68.667969 60.09375 68.605469 60.019531 C 68.355469 59.683594 68.167969 59.316406 68.046875 58.917969 C 67.925781 58.515625 67.875 58.105469 67.894531 57.691406 C 67.875 57.273438 67.925781 56.863281 68.046875 56.460938 C 68.167969 56.0625 68.355469 55.695312 68.605469 55.359375 C 68.667969 55.285156 68.734375 55.214844 68.808594 55.152344 C 68.878906 55.085938 68.953125 55.023438 69.03125 54.964844 C 69.109375 54.90625 69.191406 54.855469 69.273438 54.804688 C 69.359375 54.753906 69.445312 54.710938 69.53125 54.671875 C 69.621094 54.628906 69.710938 54.59375 69.804688 54.566406 C 69.894531 54.535156 69.988281 54.507812 70.085938 54.488281 C 70.179688 54.46875 70.277344 54.453125 70.371094 54.441406 C 70.46875 54.433594 70.566406 54.425781 70.664062 54.425781 C 70.761719 54.425781 70.859375 54.433594 70.953125 54.441406 C 71.050781 54.453125 71.148438 54.46875 71.242188 54.488281 C 71.335938 54.507812 71.429688 54.535156 71.523438 54.566406 C 71.613281 54.59375 71.707031 54.628906 71.792969 54.671875 C 71.882812 54.710938 71.96875 54.753906 72.050781 54.804688 C 72.136719 54.855469 72.21875 54.90625 72.296875 54.964844 C 72.375 55.023438 72.449219 55.085938 72.519531 55.152344 C 72.589844 55.214844 72.65625 55.285156 72.722656 55.359375 C 72.972656 55.695312 73.15625 56.0625 73.277344 56.460938 C 73.402344 56.863281 73.453125 57.273438 73.429688 57.691406 C 73.453125 58.105469 73.402344 58.515625 73.277344 58.917969 C 73.15625 59.316406 72.972656 59.683594 72.722656 60.019531 Z M 71.769531 56.046875 C 71.738281 56 71.707031 55.957031 71.671875 55.914062 C 71.636719 55.871094 71.597656 55.832031 71.558594 55.796875 C 71.519531 55.757812 71.476562 55.722656 71.433594 55.691406 C 71.386719 55.660156 71.339844 55.628906 71.292969 55.601562 C 71.242188 55.574219 71.195312 55.554688 71.144531 55.53125 C 71.09375 55.511719 71.039062 55.496094 70.988281 55.480469 C 70.933594 55.46875 70.878906 55.457031 70.824219 55.453125 C 70.769531 55.445312 70.714844 55.441406 70.660156 55.441406 C 70.605469 55.441406 70.550781 55.445312 70.496094 55.453125 C 70.441406 55.457031 70.386719 55.46875 70.332031 55.480469 C 70.28125 55.496094 70.226562 55.511719 70.175781 55.53125 C 70.125 55.554688 70.074219 55.574219 70.027344 55.601562 C 69.980469 55.628906 69.933594 55.660156 69.886719 55.691406 C 69.84375 55.722656 69.800781 55.757812 69.761719 55.796875 C 69.71875 55.832031 69.683594 55.871094 69.648438 55.914062 C 69.613281 55.957031 69.582031 56 69.550781 56.046875 C 69.269531 56.554688 69.144531 57.097656 69.175781 57.675781 C 69.144531 58.253906 69.269531 58.796875 69.550781 59.308594 C 69.578125 59.351562 69.609375 59.398438 69.644531 59.441406 C 69.679688 59.484375 69.71875 59.527344 69.757812 59.5625 C 69.796875 59.601562 69.839844 59.636719 69.882812 59.671875 C 69.929688 59.703125 69.976562 59.734375 70.023438 59.761719 C 70.074219 59.789062 70.121094 59.8125 70.175781 59.832031 C 70.226562 59.851562 70.277344 59.871094 70.332031 59.882812 C 70.386719 59.898438 70.441406 59.910156 70.496094 59.914062 C 70.550781 59.921875 70.605469 59.925781 70.660156 59.925781 C 70.714844 59.925781 70.769531 59.921875 70.824219 59.914062 C 70.878906 59.910156 70.933594 59.898438 70.988281 59.882812 C 71.042969 59.871094 71.09375 59.851562 71.144531 59.832031 C 71.195312 59.8125 71.246094 59.789062 71.296875 59.761719 C 71.34375 59.734375 71.390625 59.703125 71.433594 59.671875 C 71.480469 59.636719 71.523438 59.601562 71.5625 59.5625 C 71.601562 59.527344 71.636719 59.484375 71.671875 59.441406 C 71.707031 59.398438 71.738281 59.351562 71.769531 59.308594 C 72.050781 58.796875 72.175781 58.253906 72.144531 57.675781 C 72.175781 57.097656 72.050781 56.554688 71.769531 56.046875 Z M 71.769531 56.046875 " fill-opacity="1" fill-rule="nonzero"/><path fill="#1068b0" d="M 77.257812 52.691406 C 76.425781 52.691406 76.007812 53.050781 76.007812 53.773438 L 76.007812 54.554688 L 77.316406 54.554688 L 77.316406 55.511719 L 76.019531 55.511719 L 76.019531 60.835938 L 74.769531 60.835938 L 74.769531 55.511719 L 73.941406 55.511719 L 73.941406 54.554688 L 74.769531 54.554688 L 74.769531 53.773438 C 74.753906 53.472656 74.800781 53.179688 74.914062 52.902344 C 75.03125 52.621094 75.199219 52.378906 75.425781 52.179688 C 75.65625 51.996094 75.910156 51.863281 76.191406 51.773438 C 76.46875 51.683594 76.753906 51.648438 77.046875 51.667969 C 77.183594 51.664062 77.316406 51.671875 77.449219 51.6875 L 77.449219 52.691406 Z M 77.257812 52.691406 " fill-opacity="1" fill-rule="nonzero"/><path fill="#1068b0" d="M 81.011719 60.777344 C 80.757812 60.882812 80.492188 60.929688 80.214844 60.921875 C 79.0625 60.921875 78.484375 60.304688 78.484375 59.078125 L 78.484375 55.511719 L 77.632812 55.511719 L 77.632812 54.554688 L 78.5 54.554688 L 78.5 53.097656 L 79.753906 52.714844 L 79.753906 54.554688 L 81.027344 54.554688 L 81.027344 55.511719 L 79.753906 55.511719 L 79.753906 59.011719 C 79.753906 59.539062 80.035156 59.804688 80.59375 59.804688 C 80.746094 59.804688 80.890625 59.78125 81.027344 59.722656 Z M 81.011719 60.777344 " fill-opacity="1" fill-rule="nonzero"/><path fill="#1068b0" d="M 88.519531 60.835938 L 87.195312 60.835938 L 86.074219 56.847656 C 85.992188 56.550781 85.929688 56.25 85.886719 55.941406 L 85.863281 55.941406 C 85.8125 56.25 85.746094 56.550781 85.660156 56.847656 L 84.542969 60.835938 L 83.21875 60.835938 L 81.335938 54.554688 L 82.613281 54.554688 L 83.695312 58.703125 C 83.78125 59.027344 83.839844 59.359375 83.871094 59.691406 L 83.898438 59.691406 C 83.957031 59.339844 84.027344 58.984375 84.105469 58.703125 L 85.25 54.554688 L 86.457031 54.554688 L 87.605469 58.703125 C 87.683594 58.996094 87.75 59.328125 87.8125 59.691406 L 87.835938 59.691406 C 87.871094 59.355469 87.925781 59.027344 88.011719 58.703125 L 89.132812 54.554688 L 90.40625 54.554688 Z M 88.519531 60.835938 " fill-opacity="1" fill-rule="nonzero"/><path fill="#1068b0" d="M 95.765625 60.519531 C 95.042969 60.851562 94.289062 61 93.496094 60.960938 C 91.683594 60.960938 90.773438 60.304688 90.773438 58.992188 C 90.765625 58.808594 90.789062 58.625 90.84375 58.449219 C 90.894531 58.269531 90.972656 58.105469 91.078125 57.953125 C 91.183594 57.800781 91.3125 57.667969 91.460938 57.554688 C 91.605469 57.441406 91.769531 57.355469 91.945312 57.292969 C 92.785156 56.988281 93.652344 56.832031 94.550781 56.828125 L 94.550781 56.429688 C 94.550781 55.722656 94.105469 55.371094 93.214844 55.371094 C 92.609375 55.367188 92.027344 55.492188 91.476562 55.753906 L 91.148438 54.878906 C 91.847656 54.578125 92.582031 54.429688 93.34375 54.4375 C 94.960938 54.4375 95.765625 55.144531 95.765625 56.554688 Z M 94.550781 57.675781 C 93.945312 57.683594 93.355469 57.769531 92.777344 57.933594 C 92.660156 57.960938 92.550781 58.007812 92.453125 58.074219 C 92.351562 58.136719 92.265625 58.21875 92.191406 58.3125 C 92.117188 58.40625 92.0625 58.507812 92.023438 58.621094 C 91.984375 58.734375 91.964844 58.851562 91.964844 58.972656 C 91.964844 59.675781 92.460938 60.03125 93.449219 60.03125 C 93.824219 60.050781 94.1875 59.996094 94.539062 59.867188 Z M 94.550781 57.675781 " fill-opacity="1" fill-rule="nonzero"/><path fill="#1068b0" d="M 99.789062 55.53125 C 99.578125 55.484375 99.363281 55.460938 99.144531 55.464844 C 98.804688 55.453125 98.472656 55.507812 98.152344 55.628906 L 98.152344 60.835938 L 96.875 60.835938 L 96.875 54.867188 C 97.664062 54.558594 98.476562 54.410156 99.320312 54.425781 C 99.558594 54.421875 99.796875 54.4375 100.03125 54.472656 Z M 99.789062 55.53125 " fill-opacity="1" fill-rule="nonzero"/><path fill="#1068b0" d="M 105.867188 57.664062 L 101.679688 58.246094 C 101.8125 59.382812 102.457031 59.949219 103.613281 59.949219 C 104.226562 59.96875 104.804688 59.839844 105.351562 59.5625 L 105.726562 60.519531 C 105.03125 60.84375 104.296875 60.992188 103.527344 60.960938 C 103.316406 60.972656 103.105469 60.964844 102.894531 60.929688 C 102.6875 60.898438 102.484375 60.84375 102.285156 60.765625 C 102.089844 60.6875 101.902344 60.59375 101.726562 60.476562 C 101.546875 60.359375 101.386719 60.222656 101.238281 60.074219 C 100.953125 59.742188 100.742188 59.371094 100.601562 58.957031 C 100.460938 58.542969 100.40625 58.121094 100.429688 57.6875 C 100.410156 57.261719 100.464844 56.847656 100.59375 56.441406 C 100.71875 56.039062 100.914062 55.667969 101.179688 55.335938 C 101.304688 55.183594 101.449219 55.050781 101.609375 54.933594 C 101.765625 54.8125 101.9375 54.714844 102.117188 54.636719 C 102.300781 54.558594 102.488281 54.5 102.683594 54.464844 C 102.878906 54.425781 103.074219 54.414062 103.273438 54.425781 C 103.632812 54.402344 103.976562 54.457031 104.3125 54.589844 C 104.648438 54.71875 104.9375 54.910156 105.191406 55.167969 C 105.429688 55.449219 105.609375 55.761719 105.730469 56.109375 C 105.851562 56.457031 105.902344 56.816406 105.878906 57.183594 C 105.878906 57.398438 105.878906 57.554688 105.867188 57.664062 Z M 104.652344 56.988281 C 104.652344 55.902344 104.179688 55.359375 103.234375 55.359375 C 103.003906 55.347656 102.785156 55.390625 102.578125 55.484375 C 102.371094 55.578125 102.195312 55.714844 102.054688 55.894531 C 101.890625 56.113281 101.765625 56.351562 101.6875 56.613281 C 101.605469 56.871094 101.574219 57.136719 101.585938 57.410156 Z M 104.652344 56.988281 " fill-opacity="1" fill-rule="nonzero"/></svg>