<svg xmlns="http://www.w3.org/2000/svg" xmlns:xlink="http://www.w3.org/1999/xlink" width="150" zoomAndPan="magnify" viewBox="0 0 112.5 112.499997" height="150" preserveAspectRatio="xMidYMid meet" version="1.0"><defs><clipPath id="775e41d046"><path d="M 100 37.90625 L 105.46875 37.90625 L 105.46875 39.847656 L 100 39.847656 Z M 100 37.90625 " clip-rule="nonzero"/></clipPath><clipPath id="c0f34eebb0"><path d="M 65.335938 68.894531 L 69.066406 68.894531 L 69.066406 73.753906 L 65.335938 73.753906 Z M 65.335938 68.894531 " clip-rule="nonzero"/></clipPath></defs><path fill="#ed4e00" d="M 104.84375 52.890625 C 104.769531 52.894531 104.695312 52.878906 104.625 52.855469 L 102.496094 52.097656 L 100.351562 52.820312 C 100.199219 52.871094 100.03125 52.867188 99.882812 52.804688 C 99.734375 52.742188 99.613281 52.625 99.546875 52.480469 L 98.578125 50.445312 L 96.550781 49.449219 C 96.402344 49.378906 96.289062 49.257812 96.230469 49.109375 C 96.167969 48.957031 96.164062 48.792969 96.21875 48.640625 L 96.980469 46.515625 L 96.253906 44.390625 C 96.199219 44.238281 96.203125 44.070312 96.265625 43.921875 C 96.332031 43.773438 96.449219 43.648438 96.59375 43.582031 L 98.636719 42.617188 L 99.640625 40.597656 C 99.710938 40.453125 99.835938 40.339844 99.984375 40.277344 C 100.136719 40.21875 100.300781 40.214844 100.453125 40.269531 L 102.582031 41.035156 L 104.722656 40.308594 C 104.875 40.257812 105.042969 40.265625 105.191406 40.328125 C 105.339844 40.390625 105.460938 40.503906 105.527344 40.648438 L 106.496094 42.683594 L 108.527344 43.679688 C 108.671875 43.753906 108.785156 43.875 108.847656 44.023438 C 108.90625 44.171875 108.910156 44.339844 108.855469 44.492188 L 108.09375 46.613281 L 108.820312 48.746094 C 108.875 48.898438 108.867188 49.0625 108.804688 49.210938 C 108.742188 49.359375 108.625 49.480469 108.480469 49.546875 L 106.4375 50.511719 L 105.4375 52.535156 C 105.378906 52.640625 105.296875 52.734375 105.191406 52.796875 C 105.085938 52.859375 104.96875 52.894531 104.84375 52.890625 Z M 102.496094 51.15625 C 102.570312 51.15625 102.644531 51.167969 102.714844 51.191406 L 104.707031 51.902344 L 105.636719 50.011719 C 105.703125 49.878906 105.8125 49.773438 105.945312 49.710938 L 107.855469 48.808594 L 107.175781 46.816406 C 107.128906 46.675781 107.128906 46.523438 107.175781 46.386719 L 107.886719 44.402344 L 105.992188 43.476562 C 105.859375 43.40625 105.757812 43.296875 105.695312 43.164062 L 104.792969 41.265625 L 102.789062 41.9375 C 102.648438 41.988281 102.496094 41.988281 102.355469 41.9375 L 100.363281 41.230469 L 99.433594 43.117188 C 99.367188 43.25 99.257812 43.355469 99.125 43.421875 L 97.214844 44.320312 L 97.894531 46.316406 C 97.941406 46.457031 97.941406 46.609375 97.894531 46.746094 L 97.183594 48.730469 L 99.078125 49.65625 C 99.210938 49.722656 99.316406 49.828125 99.382812 49.964844 L 100.289062 51.863281 L 102.289062 51.1875 C 102.355469 51.167969 102.425781 51.15625 102.496094 51.15625 Z M 102.496094 51.15625 " fill-opacity="1" fill-rule="nonzero"/><g clip-path="url(#775e41d046)"><path fill="#ff743e" d="M 104.835938 39.722656 C 104.738281 39.722656 104.644531 39.691406 104.566406 39.636719 C 104.488281 39.582031 104.429688 39.503906 104.398438 39.410156 L 104.183594 38.832031 L 101.144531 38.832031 L 100.933594 39.410156 C 100.910156 39.46875 100.878906 39.523438 100.839844 39.566406 C 100.796875 39.613281 100.75 39.648438 100.691406 39.671875 C 100.636719 39.699219 100.578125 39.714844 100.515625 39.714844 C 100.457031 39.71875 100.394531 39.710938 100.335938 39.691406 C 100.28125 39.667969 100.226562 39.636719 100.183594 39.597656 C 100.136719 39.554688 100.101562 39.503906 100.074219 39.449219 C 100.046875 39.394531 100.035156 39.335938 100.03125 39.273438 C 100.027344 39.214844 100.039062 39.152344 100.058594 39.097656 L 100.382812 38.207031 C 100.417969 38.117188 100.476562 38.042969 100.554688 37.988281 C 100.632812 37.933594 100.726562 37.90625 100.820312 37.90625 L 104.511719 37.90625 C 104.605469 37.90625 104.699219 37.9375 104.777344 37.992188 C 104.855469 38.046875 104.914062 38.121094 104.949219 38.210938 L 105.273438 39.101562 C 105.292969 39.15625 105.300781 39.21875 105.300781 39.28125 C 105.296875 39.339844 105.28125 39.398438 105.257812 39.457031 C 105.230469 39.511719 105.191406 39.558594 105.148438 39.601562 C 105.101562 39.640625 105.050781 39.671875 104.992188 39.695312 C 104.941406 39.714844 104.886719 39.722656 104.835938 39.722656 Z M 104.835938 39.722656 " fill-opacity="1" fill-rule="nonzero"/></g><path fill="#ff743e" d="M 109.347656 43.480469 C 109.28125 43.480469 109.214844 43.464844 109.152344 43.4375 C 109.097656 43.410156 109.046875 43.375 109.007812 43.328125 C 108.964844 43.285156 108.933594 43.230469 108.910156 43.175781 C 108.890625 43.117188 108.882812 43.054688 108.882812 42.996094 C 108.886719 42.933594 108.902344 42.875 108.929688 42.820312 L 109.191406 42.257812 L 107.042969 40.117188 L 106.480469 40.382812 C 106.367188 40.433594 106.238281 40.4375 106.125 40.398438 C 106.007812 40.355469 105.914062 40.269531 105.859375 40.15625 C 105.808594 40.046875 105.800781 39.917969 105.84375 39.804688 C 105.886719 39.6875 105.972656 39.59375 106.085938 39.542969 L 106.945312 39.140625 C 107.03125 39.101562 107.128906 39.089844 107.222656 39.105469 C 107.316406 39.121094 107.402344 39.164062 107.472656 39.230469 L 110.082031 41.832031 C 110.148438 41.898438 110.191406 41.984375 110.210938 42.078125 C 110.226562 42.171875 110.214844 42.269531 110.171875 42.355469 L 109.765625 43.210938 C 109.730469 43.289062 109.671875 43.359375 109.597656 43.40625 C 109.523438 43.453125 109.4375 43.476562 109.347656 43.480469 Z M 109.347656 43.480469 " fill-opacity="1" fill-rule="nonzero"/><path fill="#ff743e" d="M 109.871094 49.316406 C 109.761719 49.316406 109.65625 49.277344 109.574219 49.207031 C 109.488281 49.136719 109.429688 49.039062 109.414062 48.929688 C 109.394531 48.824219 109.414062 48.710938 109.46875 48.617188 C 109.523438 48.523438 109.613281 48.453125 109.714844 48.414062 L 110.296875 48.203125 L 110.296875 45.179688 L 109.714844 44.964844 C 109.65625 44.945312 109.605469 44.914062 109.558594 44.871094 C 109.515625 44.832031 109.476562 44.78125 109.453125 44.726562 C 109.425781 44.671875 109.414062 44.613281 109.410156 44.550781 C 109.40625 44.492188 109.414062 44.429688 109.4375 44.375 C 109.457031 44.316406 109.488281 44.261719 109.53125 44.21875 C 109.570312 44.175781 109.621094 44.136719 109.675781 44.113281 C 109.730469 44.085938 109.792969 44.070312 109.851562 44.070312 C 109.914062 44.066406 109.976562 44.074219 110.03125 44.097656 L 110.929688 44.417969 C 111.019531 44.453125 111.097656 44.511719 111.148438 44.589844 C 111.203125 44.667969 111.230469 44.761719 111.230469 44.855469 L 111.230469 48.527344 C 111.230469 48.625 111.203125 48.714844 111.148438 48.792969 C 111.09375 48.871094 111.019531 48.929688 110.929688 48.964844 L 110.035156 49.285156 C 109.984375 49.304688 109.929688 49.316406 109.871094 49.316406 Z M 109.871094 49.316406 " fill-opacity="1" fill-rule="nonzero"/><path fill="#ff743e" d="M 106.960938 54.210938 C 106.894531 54.210938 106.828125 54.195312 106.765625 54.167969 L 105.90625 53.765625 C 105.847656 53.742188 105.792969 53.707031 105.75 53.660156 C 105.703125 53.617188 105.671875 53.5625 105.648438 53.507812 C 105.625 53.445312 105.613281 53.382812 105.617188 53.320312 C 105.617188 53.257812 105.632812 53.199219 105.660156 53.140625 C 105.683594 53.085938 105.722656 53.035156 105.769531 52.992188 C 105.816406 52.949219 105.871094 52.917969 105.933594 52.898438 C 105.992188 52.878906 106.054688 52.871094 106.117188 52.875 C 106.179688 52.878906 106.242188 52.898438 106.296875 52.925781 L 106.859375 53.195312 L 109.007812 51.054688 L 108.742188 50.492188 C 108.714844 50.4375 108.695312 50.375 108.691406 50.3125 C 108.6875 50.253906 108.695312 50.191406 108.714844 50.132812 C 108.734375 50.070312 108.769531 50.019531 108.8125 49.972656 C 108.851562 49.925781 108.902344 49.886719 108.960938 49.859375 C 109.015625 49.835938 109.078125 49.820312 109.140625 49.816406 C 109.203125 49.816406 109.265625 49.824219 109.324219 49.847656 C 109.382812 49.871094 109.433594 49.902344 109.480469 49.949219 C 109.523438 49.992188 109.5625 50.042969 109.585938 50.101562 L 109.988281 50.957031 C 110.027344 51.042969 110.039062 51.140625 110.023438 51.234375 C 110.007812 51.328125 109.960938 51.414062 109.894531 51.480469 L 107.289062 54.074219 C 107.246094 54.117188 107.195312 54.152344 107.140625 54.175781 C 107.082031 54.199219 107.023438 54.210938 106.960938 54.210938 Z M 106.960938 54.210938 " fill-opacity="1" fill-rule="nonzero"/><path fill="#ff743e" d="M 104.253906 55.222656 L 100.566406 55.222656 C 100.46875 55.222656 100.375 55.191406 100.300781 55.136719 C 100.222656 55.082031 100.160156 55.003906 100.128906 54.914062 L 99.804688 54.027344 C 99.785156 53.96875 99.773438 53.910156 99.777344 53.847656 C 99.78125 53.789062 99.792969 53.730469 99.820312 53.671875 C 99.847656 53.617188 99.882812 53.570312 99.925781 53.527344 C 99.972656 53.488281 100.027344 53.453125 100.082031 53.433594 C 100.140625 53.414062 100.199219 53.402344 100.261719 53.40625 C 100.324219 53.410156 100.382812 53.421875 100.4375 53.449219 C 100.492188 53.476562 100.542969 53.511719 100.585938 53.558594 C 100.625 53.601562 100.660156 53.65625 100.679688 53.710938 L 100.890625 54.289062 L 103.929688 54.289062 L 104.140625 53.710938 C 104.160156 53.65625 104.195312 53.601562 104.234375 53.558594 C 104.277344 53.511719 104.328125 53.476562 104.382812 53.449219 C 104.4375 53.421875 104.496094 53.410156 104.558594 53.40625 C 104.621094 53.402344 104.679688 53.414062 104.738281 53.433594 C 104.796875 53.453125 104.847656 53.488281 104.894531 53.527344 C 104.9375 53.570312 104.972656 53.617188 105 53.671875 C 105.027344 53.730469 105.039062 53.789062 105.042969 53.847656 C 105.046875 53.910156 105.035156 53.96875 105.015625 54.027344 L 104.691406 54.914062 C 104.660156 55.003906 104.601562 55.082031 104.523438 55.136719 C 104.445312 55.191406 104.351562 55.222656 104.253906 55.222656 Z M 104.253906 55.222656 " fill-opacity="1" fill-rule="nonzero"/><path fill="#ff743e" d="M 97.933594 54.03125 C 97.871094 54.03125 97.8125 54.019531 97.753906 53.996094 C 97.699219 53.972656 97.648438 53.9375 97.605469 53.894531 L 94.996094 51.296875 C 94.925781 51.230469 94.882812 51.144531 94.863281 51.050781 C 94.847656 50.957031 94.863281 50.859375 94.902344 50.773438 L 95.304688 49.914062 C 95.328125 49.859375 95.367188 49.8125 95.410156 49.769531 C 95.457031 49.730469 95.507812 49.695312 95.566406 49.675781 C 95.625 49.65625 95.683594 49.648438 95.746094 49.648438 C 95.808594 49.652344 95.867188 49.667969 95.921875 49.691406 C 95.976562 49.71875 96.027344 49.753906 96.070312 49.800781 C 96.109375 49.84375 96.140625 49.898438 96.164062 49.953125 C 96.183594 50.011719 96.191406 50.070312 96.191406 50.132812 C 96.1875 50.195312 96.171875 50.253906 96.148438 50.308594 L 95.882812 50.871094 L 98.03125 53.011719 L 98.59375 52.746094 C 98.707031 52.695312 98.835938 52.6875 98.953125 52.730469 C 99.066406 52.773438 99.160156 52.859375 99.214844 52.96875 C 99.265625 53.082031 99.273438 53.207031 99.230469 53.324219 C 99.1875 53.441406 99.101562 53.535156 98.988281 53.585938 L 98.128906 53.988281 C 98.066406 54.015625 98 54.03125 97.933594 54.03125 Z M 97.933594 54.03125 " fill-opacity="1" fill-rule="nonzero"/><path fill="#ff743e" d="M 95.199219 49.058594 C 95.148438 49.058594 95.09375 49.050781 95.042969 49.03125 L 94.152344 48.710938 C 94.058594 48.675781 93.984375 48.617188 93.925781 48.539062 C 93.871094 48.460938 93.84375 48.367188 93.84375 48.273438 L 93.84375 44.597656 C 93.84375 44.503906 93.871094 44.410156 93.925781 44.332031 C 93.980469 44.253906 94.058594 44.195312 94.152344 44.160156 L 95.042969 43.839844 C 95.101562 43.816406 95.160156 43.808594 95.222656 43.8125 C 95.285156 43.8125 95.34375 43.828125 95.398438 43.855469 C 95.453125 43.878906 95.503906 43.917969 95.546875 43.960938 C 95.585938 44.007812 95.617188 44.058594 95.640625 44.117188 C 95.660156 44.171875 95.667969 44.234375 95.667969 44.292969 C 95.664062 44.355469 95.648438 44.414062 95.625 44.46875 C 95.597656 44.523438 95.5625 44.574219 95.515625 44.617188 C 95.472656 44.65625 95.417969 44.6875 95.359375 44.710938 L 94.78125 44.921875 L 94.78125 47.949219 L 95.359375 48.160156 C 95.464844 48.199219 95.550781 48.269531 95.605469 48.363281 C 95.660156 48.460938 95.679688 48.570312 95.660156 48.675781 C 95.640625 48.785156 95.585938 48.882812 95.5 48.953125 C 95.417969 49.023438 95.3125 49.058594 95.199219 49.058594 Z M 95.199219 49.058594 " fill-opacity="1" fill-rule="nonzero"/><path fill="#ff743e" d="M 95.90625 43.300781 C 95.820312 43.300781 95.734375 43.273438 95.65625 43.226562 C 95.582031 43.179688 95.523438 43.113281 95.484375 43.03125 L 95.082031 42.175781 C 95.042969 42.089844 95.027344 41.992188 95.046875 41.898438 C 95.0625 41.804688 95.109375 41.71875 95.175781 41.652344 L 97.785156 39.054688 C 97.855469 38.984375 97.941406 38.941406 98.035156 38.925781 C 98.128906 38.910156 98.226562 38.921875 98.3125 38.960938 L 99.171875 39.363281 C 99.230469 39.386719 99.28125 39.421875 99.324219 39.46875 C 99.371094 39.511719 99.402344 39.566406 99.425781 39.621094 C 99.449219 39.679688 99.457031 39.742188 99.457031 39.804688 C 99.453125 39.867188 99.4375 39.929688 99.414062 39.984375 C 99.386719 40.042969 99.347656 40.09375 99.300781 40.132812 C 99.253906 40.175781 99.199219 40.207031 99.140625 40.226562 C 99.082031 40.246094 99.019531 40.253906 98.957031 40.25 C 98.894531 40.246094 98.832031 40.230469 98.777344 40.199219 L 98.210938 39.9375 L 96.066406 42.078125 L 96.328125 42.636719 C 96.355469 42.695312 96.371094 42.753906 96.371094 42.816406 C 96.375 42.875 96.363281 42.9375 96.34375 42.992188 C 96.324219 43.050781 96.292969 43.101562 96.25 43.148438 C 96.210938 43.191406 96.160156 43.230469 96.105469 43.253906 C 96.042969 43.285156 95.976562 43.296875 95.90625 43.300781 Z M 95.90625 43.300781 " fill-opacity="1" fill-rule="nonzero"/><path fill="#ed4e00" d="M 10.1875 63.617188 L 3.457031 56.34375 L 3.457031 63.304688 C 3.457031 63.429688 3.40625 63.546875 3.320312 63.632812 C 3.230469 63.71875 3.113281 63.769531 2.992188 63.769531 L 0.78125 63.769531 C 0.65625 63.769531 0.539062 63.71875 0.453125 63.632812 C 0.363281 63.546875 0.316406 63.429688 0.316406 63.304688 L 0.316406 47.902344 C 0.316406 47.777344 0.363281 47.660156 0.453125 47.574219 C 0.539062 47.488281 0.65625 47.4375 0.78125 47.4375 L 2.992188 47.4375 C 3.113281 47.4375 3.230469 47.488281 3.320312 47.574219 C 3.40625 47.660156 3.457031 47.777344 3.457031 47.902344 L 3.457031 55.742188 L 9.832031 47.648438 C 9.875 47.59375 9.929688 47.546875 9.996094 47.515625 C 10.058594 47.484375 10.128906 47.46875 10.199219 47.46875 L 12.859375 47.46875 C 12.945312 47.472656 13.027344 47.496094 13.101562 47.542969 C 13.171875 47.589844 13.230469 47.65625 13.269531 47.730469 C 13.304688 47.808594 13.320312 47.894531 13.3125 47.980469 C 13.304688 48.066406 13.269531 48.148438 13.21875 48.214844 L 7.078125 55.898438 L 13.738281 62.988281 C 13.800781 63.054688 13.839844 63.136719 13.855469 63.226562 C 13.871094 63.316406 13.859375 63.40625 13.824219 63.492188 C 13.789062 63.574219 13.726562 63.644531 13.652344 63.695312 C 13.574219 63.742188 13.488281 63.769531 13.398438 63.769531 L 10.53125 63.769531 C 10.464844 63.769531 10.402344 63.753906 10.34375 63.730469 C 10.285156 63.703125 10.230469 63.664062 10.1875 63.617188 Z M 10.1875 63.617188 " fill-opacity="1" fill-rule="nonzero"/><path fill="#ed4e00" d="M 15.925781 63.09375 L 23.882812 47.605469 C 23.90625 47.5625 23.9375 47.527344 23.980469 47.503906 C 24.019531 47.476562 24.066406 47.464844 24.117188 47.46875 C 24.164062 47.464844 24.210938 47.480469 24.253906 47.503906 C 24.292969 47.527344 24.328125 47.5625 24.347656 47.605469 L 32.300781 63.09375 C 32.335938 63.164062 32.355469 63.242188 32.351562 63.324219 C 32.347656 63.402344 32.324219 63.480469 32.285156 63.546875 C 32.242188 63.613281 32.183594 63.671875 32.113281 63.710938 C 32.046875 63.75 31.964844 63.769531 31.886719 63.769531 L 29.527344 63.769531 C 29.441406 63.769531 29.355469 63.746094 29.28125 63.699219 C 29.210938 63.652344 29.152344 63.589844 29.113281 63.511719 L 27.964844 61.203125 L 20.238281 61.203125 L 19.109375 63.507812 C 19.070312 63.585938 19.011719 63.652344 18.9375 63.699219 C 18.863281 63.746094 18.777344 63.769531 18.691406 63.769531 L 16.339844 63.769531 C 16.261719 63.769531 16.179688 63.75 16.113281 63.710938 C 16.042969 63.671875 15.984375 63.613281 15.941406 63.546875 C 15.902344 63.480469 15.878906 63.402344 15.875 63.324219 C 15.871094 63.242188 15.890625 63.164062 15.925781 63.09375 Z M 21.757812 58.484375 L 26.441406 58.484375 L 24.113281 53.554688 Z M 21.757812 58.484375 " fill-opacity="1" fill-rule="nonzero"/><path fill="#ed4e00" d="M 45.835938 61.464844 L 45.835938 63.304688 C 45.835938 63.429688 45.785156 63.546875 45.699219 63.632812 C 45.613281 63.71875 45.492188 63.769531 45.371094 63.769531 L 34.5 63.769531 C 34.375 63.769531 34.257812 63.71875 34.167969 63.632812 C 34.082031 63.546875 34.03125 63.429688 34.03125 63.304688 L 34.03125 47.902344 C 34.03125 47.777344 34.082031 47.660156 34.167969 47.574219 C 34.257812 47.488281 34.375 47.4375 34.5 47.4375 L 36.703125 47.4375 C 36.824219 47.4375 36.945312 47.488281 37.03125 47.574219 C 37.117188 47.660156 37.167969 47.777344 37.167969 47.902344 L 37.167969 61.003906 L 45.371094 61.003906 C 45.429688 61.003906 45.492188 61.015625 45.546875 61.039062 C 45.605469 61.0625 45.65625 61.097656 45.699219 61.140625 C 45.742188 61.183594 45.777344 61.234375 45.800781 61.289062 C 45.824219 61.34375 45.835938 61.40625 45.835938 61.464844 Z M 45.835938 61.464844 " fill-opacity="1" fill-rule="nonzero"/><path fill="#ed4e00" d="M 47.191406 63.09375 L 55.152344 47.605469 C 55.171875 47.5625 55.207031 47.527344 55.246094 47.503906 C 55.289062 47.480469 55.335938 47.464844 55.382812 47.46875 C 55.429688 47.464844 55.480469 47.480469 55.519531 47.503906 C 55.5625 47.527344 55.59375 47.5625 55.617188 47.605469 L 63.566406 63.09375 C 63.601562 63.164062 63.621094 63.246094 63.617188 63.324219 C 63.613281 63.402344 63.589844 63.480469 63.550781 63.546875 C 63.507812 63.617188 63.449219 63.671875 63.378906 63.710938 C 63.308594 63.75 63.230469 63.769531 63.152344 63.769531 L 60.796875 63.769531 C 60.710938 63.769531 60.625 63.746094 60.550781 63.699219 C 60.476562 63.652344 60.417969 63.589844 60.378906 63.511719 L 59.234375 61.203125 L 51.503906 61.203125 L 50.378906 63.507812 C 50.339844 63.585938 50.28125 63.652344 50.207031 63.699219 C 50.132812 63.746094 50.046875 63.769531 49.960938 63.769531 L 47.605469 63.769531 C 47.527344 63.769531 47.449219 63.75 47.378906 63.710938 C 47.308594 63.671875 47.25 63.617188 47.207031 63.546875 C 47.164062 63.480469 47.140625 63.402344 47.136719 63.324219 C 47.136719 63.246094 47.152344 63.167969 47.191406 63.09375 Z M 53.023438 58.484375 L 57.707031 58.484375 L 55.378906 53.554688 Z M 53.023438 58.484375 " fill-opacity="1" fill-rule="nonzero"/><path fill="#ed4e00" d="M 73.140625 47.445312 C 73.921875 47.441406 74.695312 47.597656 75.410156 47.90625 C 76.804688 48.492188 77.914062 49.597656 78.503906 50.984375 C 78.8125 51.699219 78.964844 52.472656 78.960938 53.25 C 78.96875 54.011719 78.832031 54.765625 78.558594 55.480469 C 78.296875 56.15625 77.890625 56.765625 77.371094 57.273438 C 76.808594 57.8125 76.132812 58.222656 75.394531 58.476562 C 74.503906 58.78125 73.570312 58.929688 72.628906 58.914062 L 68.972656 58.914062 L 68.972656 63.3125 C 68.972656 63.4375 68.925781 63.554688 68.835938 63.640625 C 68.75 63.726562 68.632812 63.777344 68.507812 63.777344 L 66.296875 63.777344 C 66.175781 63.777344 66.054688 63.726562 65.96875 63.640625 C 65.882812 63.554688 65.832031 63.4375 65.832031 63.3125 L 65.832031 47.910156 C 65.832031 47.785156 65.882812 47.667969 65.96875 47.582031 C 66.054688 47.496094 66.175781 47.445312 66.296875 47.445312 Z M 73.140625 56.097656 C 73.554688 56.105469 73.964844 56.027344 74.347656 55.867188 C 74.675781 55.722656 74.960938 55.503906 75.1875 55.230469 C 75.40625 54.957031 75.570312 54.648438 75.671875 54.316406 C 75.773438 53.96875 75.828125 53.609375 75.828125 53.246094 C 75.824219 52.867188 75.757812 52.496094 75.625 52.140625 C 75.417969 51.566406 75.035156 51.066406 74.527344 50.722656 C 74.019531 50.375 73.417969 50.195312 72.804688 50.210938 L 68.972656 50.210938 L 68.972656 56.097656 Z M 73.140625 56.097656 " fill-opacity="1" fill-rule="nonzero"/><path fill="#ed4e00" d="M 77.382812 63.09375 L 85.339844 47.605469 C 85.363281 47.5625 85.394531 47.527344 85.4375 47.503906 C 85.476562 47.480469 85.523438 47.464844 85.574219 47.46875 C 85.621094 47.464844 85.667969 47.480469 85.710938 47.503906 C 85.75 47.527344 85.785156 47.5625 85.804688 47.605469 L 93.765625 63.09375 C 93.800781 63.164062 93.816406 63.242188 93.8125 63.324219 C 93.8125 63.402344 93.789062 63.480469 93.746094 63.546875 C 93.703125 63.613281 93.648438 63.671875 93.578125 63.710938 C 93.507812 63.75 93.429688 63.769531 93.351562 63.769531 L 90.988281 63.769531 C 90.898438 63.769531 90.8125 63.746094 90.742188 63.699219 C 90.667969 63.652344 90.609375 63.589844 90.570312 63.511719 L 89.421875 61.203125 L 81.695312 61.203125 L 80.570312 63.507812 C 80.535156 63.585938 80.472656 63.652344 80.398438 63.699219 C 80.324219 63.746094 80.242188 63.769531 80.152344 63.769531 L 77.796875 63.769531 C 77.71875 63.769531 77.640625 63.75 77.570312 63.710938 C 77.5 63.671875 77.441406 63.617188 77.398438 63.546875 C 77.359375 63.480469 77.335938 63.402344 77.332031 63.324219 C 77.328125 63.246094 77.34375 63.164062 77.382812 63.09375 Z M 83.21875 58.484375 L 87.898438 58.484375 L 85.574219 53.554688 Z M 83.21875 58.484375 " fill-opacity="1" fill-rule="nonzero"/><path fill="#2d150c" d="M 21.664062 68.339844 L 21.664062 67.894531 L 24.160156 67.894531 L 24.160156 68.339844 L 23.144531 68.339844 L 23.144531 72.4375 L 22.675781 72.4375 L 22.675781 68.339844 Z M 21.664062 68.339844 " fill-opacity="1" fill-rule="nonzero"/><path fill="#2d150c" d="M 24.835938 69.078125 L 25.28125 69.078125 L 25.28125 69.570312 C 25.390625 69.398438 25.53125 69.25 25.699219 69.136719 C 25.835938 69.042969 25.996094 68.992188 26.160156 68.992188 C 26.292969 68.996094 26.425781 69.035156 26.542969 69.105469 L 26.316406 69.472656 C 26.242188 69.4375 26.164062 69.417969 26.085938 69.414062 C 25.925781 69.417969 25.777344 69.480469 25.667969 69.589844 C 25.511719 69.742188 25.40625 69.933594 25.359375 70.140625 C 25.304688 70.332031 25.277344 70.71875 25.277344 71.300781 L 25.277344 72.4375 L 24.835938 72.4375 Z M 24.835938 69.078125 " fill-opacity="1" fill-rule="nonzero"/><path fill="#2d150c" d="M 27.109375 69.078125 L 27.542969 69.078125 L 27.542969 70.644531 C 27.53125 70.910156 27.554688 71.175781 27.605469 71.4375 C 27.664062 71.636719 27.789062 71.808594 27.960938 71.925781 C 28.148438 72.046875 28.363281 72.109375 28.585938 72.101562 C 28.804688 72.109375 29.019531 72.050781 29.203125 71.929688 C 29.367188 71.816406 29.492188 71.65625 29.554688 71.464844 C 29.597656 71.335938 29.621094 71.0625 29.621094 70.640625 L 29.621094 69.078125 L 30.0625 69.078125 L 30.0625 70.726562 C 30.0625 71.191406 30.007812 71.539062 29.898438 71.769531 C 29.796875 71.996094 29.625 72.191406 29.410156 72.320312 C 29.15625 72.449219 28.875 72.519531 28.585938 72.519531 C 28.300781 72.519531 28.019531 72.449219 27.765625 72.320312 C 27.546875 72.191406 27.375 71.996094 27.273438 71.765625 C 27.164062 71.527344 27.109375 71.167969 27.109375 70.691406 Z M 27.109375 69.078125 " fill-opacity="1" fill-rule="nonzero"/><path fill="#2d150c" d="M 32.976562 69.445312 L 32.695312 69.734375 C 32.464844 69.507812 32.238281 69.398438 32.015625 69.398438 C 31.882812 69.394531 31.753906 69.441406 31.65625 69.535156 C 31.605469 69.574219 31.570312 69.625 31.542969 69.679688 C 31.515625 69.738281 31.503906 69.796875 31.503906 69.859375 C 31.503906 69.972656 31.550781 70.085938 31.628906 70.171875 C 31.777344 70.320312 31.957031 70.441406 32.148438 70.527344 C 32.402344 70.640625 32.625 70.800781 32.808594 71.007812 C 32.921875 71.160156 32.980469 71.347656 32.980469 71.535156 C 32.980469 71.667969 32.957031 71.796875 32.90625 71.917969 C 32.855469 72.035156 32.78125 72.144531 32.6875 72.238281 C 32.589844 72.332031 32.476562 72.40625 32.351562 72.453125 C 32.226562 72.503906 32.09375 72.527344 31.957031 72.523438 C 31.765625 72.523438 31.574219 72.480469 31.398438 72.398438 C 31.226562 72.316406 31.078125 72.199219 30.960938 72.050781 L 31.234375 71.742188 C 31.457031 71.992188 31.691406 72.113281 31.941406 72.113281 C 32.105469 72.117188 32.261719 72.058594 32.382812 71.949219 C 32.441406 71.898438 32.488281 71.839844 32.519531 71.773438 C 32.550781 71.703125 32.566406 71.632812 32.566406 71.558594 C 32.570312 71.4375 32.527344 71.320312 32.449219 71.226562 C 32.289062 71.078125 32.105469 70.957031 31.902344 70.867188 C 31.664062 70.761719 31.453125 70.601562 31.28125 70.402344 C 31.171875 70.253906 31.113281 70.070312 31.117188 69.882812 C 31.113281 69.765625 31.136719 69.648438 31.179688 69.539062 C 31.226562 69.429688 31.292969 69.328125 31.378906 69.246094 C 31.46875 69.164062 31.570312 69.097656 31.6875 69.054688 C 31.800781 69.007812 31.921875 68.988281 32.042969 68.992188 C 32.351562 68.992188 32.660156 69.144531 32.976562 69.445312 Z M 32.976562 69.445312 " fill-opacity="1" fill-rule="nonzero"/><path fill="#2d150c" d="M 34.378906 67.832031 L 34.8125 67.832031 L 34.8125 69.078125 L 35.5 69.078125 L 35.5 69.453125 L 34.8125 69.453125 L 34.8125 72.4375 L 34.378906 72.4375 L 34.378906 69.453125 L 33.785156 69.453125 L 33.785156 69.078125 L 34.378906 69.078125 Z M 34.378906 67.832031 " fill-opacity="1" fill-rule="nonzero"/><path fill="#2d150c" d="M 41.9375 70.757812 L 42.25 71.082031 C 42.066406 71.246094 41.878906 71.394531 41.683594 71.539062 C 41.808594 71.652344 41.96875 71.804688 42.167969 72 C 42.324219 72.15625 42.460938 72.300781 42.574219 72.433594 L 41.9375 72.433594 L 41.335938 71.8125 C 41.054688 72.054688 40.742188 72.253906 40.402344 72.40625 C 40.164062 72.5 39.90625 72.546875 39.648438 72.546875 C 39.339844 72.5625 39.035156 72.453125 38.804688 72.246094 C 38.699219 72.152344 38.617188 72.035156 38.5625 71.90625 C 38.507812 71.773438 38.480469 71.636719 38.484375 71.496094 C 38.488281 71.25 38.5625 71.015625 38.699219 70.8125 C 38.84375 70.582031 39.136719 70.296875 39.578125 69.949219 C 39.394531 69.746094 39.234375 69.523438 39.097656 69.285156 C 39.03125 69.15625 38.992188 69.019531 38.992188 68.875 C 38.988281 68.769531 39.011719 68.660156 39.054688 68.566406 C 39.101562 68.46875 39.167969 68.382812 39.253906 68.3125 C 39.464844 68.136719 39.734375 68.046875 40.011719 68.054688 C 40.191406 68.050781 40.367188 68.09375 40.53125 68.171875 C 40.679688 68.238281 40.800781 68.34375 40.890625 68.476562 C 40.972656 68.597656 41.015625 68.742188 41.015625 68.886719 C 41.007812 69.058594 40.953125 69.230469 40.855469 69.371094 C 40.671875 69.621094 40.460938 69.84375 40.214844 70.03125 L 40.910156 70.753906 L 41.359375 71.210938 C 41.5625 71.070312 41.753906 70.917969 41.9375 70.757812 Z M 39.882812 70.292969 C 39.496094 70.585938 39.242188 70.816406 39.121094 70.988281 C 39.011719 71.125 38.949219 71.292969 38.941406 71.464844 C 38.941406 71.554688 38.960938 71.640625 39 71.722656 C 39.039062 71.804688 39.09375 71.875 39.160156 71.929688 C 39.308594 72.0625 39.503906 72.132812 39.703125 72.128906 C 39.867188 72.128906 40.027344 72.09375 40.175781 72.03125 C 40.480469 71.886719 40.761719 71.710938 41.019531 71.496094 L 40.296875 70.757812 C 40.175781 70.625 40.035156 70.472656 39.882812 70.296875 Z M 39.9375 69.695312 C 40.128906 69.550781 40.300781 69.382812 40.4375 69.191406 C 40.507812 69.097656 40.546875 68.992188 40.554688 68.878906 C 40.554688 68.824219 40.539062 68.769531 40.511719 68.722656 C 40.484375 68.675781 40.445312 68.636719 40.402344 68.605469 C 40.28125 68.523438 40.136719 68.484375 39.992188 68.492188 C 39.851562 68.484375 39.710938 68.523438 39.597656 68.605469 C 39.550781 68.636719 39.515625 68.679688 39.488281 68.726562 C 39.460938 68.777344 39.445312 68.828125 39.445312 68.882812 C 39.445312 68.964844 39.464844 69.046875 39.507812 69.117188 C 39.632812 69.324219 39.777344 69.515625 39.9375 69.695312 Z M 39.9375 69.695312 " fill-opacity="1" fill-rule="nonzero"/><path fill="#2d150c" d="M 45.105469 68.339844 L 45.105469 67.894531 L 47.605469 67.894531 L 47.605469 68.339844 L 46.589844 68.339844 L 46.589844 72.4375 L 46.125 72.4375 L 46.125 68.339844 Z M 45.105469 68.339844 " fill-opacity="1" fill-rule="nonzero"/><path fill="#2d150c" d="M 48.445312 67.78125 L 48.878906 67.78125 L 48.878906 69.679688 C 49.035156 69.46875 49.234375 69.292969 49.460938 69.164062 C 49.671875 69.050781 49.910156 68.988281 50.148438 68.992188 C 50.386719 68.988281 50.621094 69.054688 50.820312 69.183594 C 51.011719 69.308594 51.164062 69.484375 51.25 69.695312 C 51.34375 69.914062 51.390625 70.25 51.390625 70.707031 L 51.390625 72.4375 L 50.957031 72.4375 L 50.957031 70.835938 C 50.964844 70.574219 50.949219 70.316406 50.910156 70.058594 C 50.871094 69.863281 50.769531 69.6875 50.617188 69.558594 C 50.457031 69.441406 50.261719 69.378906 50.0625 69.390625 C 49.800781 69.390625 49.550781 69.480469 49.355469 69.648438 C 49.152344 69.8125 49.007812 70.039062 48.945312 70.292969 C 48.894531 70.59375 48.871094 70.898438 48.882812 71.207031 L 48.882812 72.4375 L 48.449219 72.4375 Z M 48.445312 67.78125 " fill-opacity="1" fill-rule="nonzero"/><path fill="#2d150c" d="M 52.410156 69.078125 L 52.851562 69.078125 L 52.851562 69.570312 C 52.960938 69.398438 53.105469 69.25 53.269531 69.136719 C 53.40625 69.042969 53.570312 68.992188 53.734375 68.992188 C 53.871094 68.996094 54.003906 69.035156 54.121094 69.105469 L 53.886719 69.472656 C 53.816406 69.4375 53.734375 69.417969 53.65625 69.414062 C 53.5 69.417969 53.347656 69.480469 53.238281 69.589844 C 53.082031 69.742188 52.976562 69.933594 52.929688 70.140625 C 52.875 70.332031 52.847656 70.71875 52.847656 71.300781 L 52.847656 72.4375 L 52.40625 72.4375 Z M 52.410156 69.078125 " fill-opacity="1" fill-rule="nonzero"/><path fill="#2d150c" d="M 54.886719 67.695312 C 54.933594 67.695312 54.980469 67.703125 55.023438 67.722656 C 55.070312 67.738281 55.109375 67.765625 55.140625 67.800781 C 55.175781 67.832031 55.203125 67.871094 55.21875 67.914062 C 55.238281 67.960938 55.246094 68.007812 55.246094 68.054688 C 55.238281 68.144531 55.199219 68.230469 55.132812 68.292969 C 55.066406 68.355469 54.980469 68.386719 54.890625 68.386719 C 54.796875 68.386719 54.710938 68.355469 54.644531 68.292969 C 54.578125 68.230469 54.539062 68.144531 54.53125 68.054688 C 54.53125 68.007812 54.539062 67.960938 54.558594 67.914062 C 54.578125 67.871094 54.601562 67.832031 54.636719 67.800781 C 54.667969 67.765625 54.707031 67.742188 54.75 67.722656 C 54.792969 67.703125 54.839844 67.695312 54.886719 67.695312 Z M 54.671875 69.078125 L 55.105469 69.078125 L 55.105469 72.4375 L 54.671875 72.4375 Z M 54.671875 69.078125 " fill-opacity="1" fill-rule="nonzero"/><path fill="#2d150c" d="M 55.945312 69.078125 L 56.410156 69.078125 L 57.542969 71.527344 L 58.660156 69.078125 L 59.125 69.078125 L 57.582031 72.4375 L 57.5 72.4375 Z M 55.945312 69.078125 " fill-opacity="1" fill-rule="nonzero"/><path fill="#2d150c" d="M 60.1875 67.695312 C 60.234375 67.695312 60.28125 67.703125 60.324219 67.722656 C 60.367188 67.738281 60.40625 67.765625 60.4375 67.800781 C 60.472656 67.832031 60.5 67.871094 60.519531 67.914062 C 60.535156 67.960938 60.542969 68.007812 60.542969 68.054688 C 60.542969 68.148438 60.503906 68.238281 60.4375 68.304688 C 60.371094 68.371094 60.28125 68.40625 60.1875 68.40625 C 60.09375 68.40625 60.003906 68.367188 59.9375 68.304688 C 59.871094 68.238281 59.832031 68.148438 59.832031 68.054688 C 59.828125 68.007812 59.839844 67.960938 59.855469 67.914062 C 59.875 67.871094 59.902344 67.832031 59.9375 67.800781 C 59.96875 67.765625 60.007812 67.738281 60.050781 67.722656 C 60.09375 67.703125 60.140625 67.695312 60.1875 67.695312 Z M 59.96875 69.078125 L 60.40625 69.078125 L 60.40625 72.4375 L 59.96875 72.4375 Z M 59.96875 69.078125 " fill-opacity="1" fill-rule="nonzero"/><path fill="#2d150c" d="M 61.5625 69.078125 L 61.996094 69.078125 L 61.996094 69.679688 C 62.148438 69.46875 62.347656 69.292969 62.578125 69.164062 C 62.789062 69.050781 63.023438 68.988281 63.265625 68.992188 C 63.503906 68.988281 63.734375 69.054688 63.9375 69.183594 C 64.128906 69.308594 64.28125 69.488281 64.367188 69.699219 C 64.460938 69.914062 64.507812 70.25 64.507812 70.707031 L 64.507812 72.4375 L 64.074219 72.4375 L 64.074219 70.835938 C 64.082031 70.574219 64.066406 70.316406 64.027344 70.058594 C 63.992188 69.863281 63.886719 69.6875 63.734375 69.558594 C 63.574219 69.441406 63.378906 69.382812 63.175781 69.390625 C 62.917969 69.390625 62.667969 69.480469 62.472656 69.648438 C 62.269531 69.8125 62.125 70.039062 62.0625 70.292969 C 62.007812 70.59375 61.988281 70.898438 62 71.207031 L 62 72.4375 L 61.566406 72.4375 Z M 61.5625 69.078125 " fill-opacity="1" fill-rule="nonzero"/><g clip-path="url(#c0f34eebb0)"><path fill="#2d150c" d="M 68.589844 69.078125 L 69.023438 69.078125 L 69.023438 71.753906 C 69.023438 72.226562 68.984375 72.570312 68.902344 72.789062 C 68.792969 73.089844 68.585938 73.34375 68.308594 73.503906 C 68 73.675781 67.648438 73.761719 67.296875 73.753906 C 67.03125 73.757812 66.765625 73.714844 66.515625 73.628906 C 66.304688 73.5625 66.113281 73.449219 65.953125 73.300781 C 65.78125 73.128906 65.648438 72.921875 65.554688 72.699219 L 66.03125 72.699219 C 66.144531 72.910156 66.320312 73.078125 66.527344 73.195312 C 66.761719 73.308594 67.023438 73.363281 67.28125 73.355469 C 67.542969 73.363281 67.800781 73.304688 68.03125 73.191406 C 68.21875 73.097656 68.367188 72.953125 68.46875 72.773438 C 68.554688 72.609375 68.597656 72.339844 68.597656 71.972656 L 68.597656 71.796875 C 68.441406 72 68.234375 72.164062 68 72.273438 C 67.742188 72.390625 67.460938 72.449219 67.179688 72.4375 C 66.894531 72.425781 66.617188 72.347656 66.371094 72.207031 C 66.109375 72.0625 65.890625 71.847656 65.738281 71.589844 C 65.589844 71.328125 65.511719 71.03125 65.515625 70.734375 C 65.519531 70.273438 65.703125 69.832031 66.027344 69.507812 C 66.355469 69.183594 66.796875 69 67.257812 68.996094 C 67.503906 68.996094 67.746094 69.046875 67.964844 69.152344 C 68.210938 69.277344 68.425781 69.453125 68.597656 69.667969 Z M 67.3125 69.410156 C 67.070312 69.40625 66.835938 69.46875 66.625 69.585938 C 66.417969 69.703125 66.246094 69.871094 66.128906 70.078125 C 66.011719 70.285156 65.949219 70.515625 65.949219 70.753906 C 65.945312 70.925781 65.976562 71.09375 66.039062 71.25 C 66.105469 71.410156 66.199219 71.550781 66.324219 71.667969 C 66.453125 71.789062 66.601562 71.886719 66.769531 71.949219 C 66.933594 72.007812 67.109375 72.039062 67.289062 72.03125 C 67.464844 72.039062 67.640625 72.011719 67.804688 71.949219 C 67.96875 71.886719 68.121094 71.792969 68.25 71.671875 C 68.371094 71.550781 68.46875 71.402344 68.53125 71.238281 C 68.59375 71.078125 68.621094 70.90625 68.613281 70.730469 C 68.617188 70.496094 68.5625 70.261719 68.445312 70.054688 C 68.335938 69.855469 68.171875 69.691406 67.972656 69.582031 C 67.769531 69.46875 67.542969 69.410156 67.3125 69.410156 Z M 67.3125 69.410156 " fill-opacity="1" fill-rule="nonzero"/></g></svg>